<svg width="32" height="24" viewBox="0 0 24 24" fill="currentColor" xmlns="http://www.w3.org/2000/svg">
<path fill-rule="evenodd" clip-rule="evenodd" d="M15 6C15 5.20435 15.3161 4.44129 15.8787 3.87868C16.4413 3.31607 17.2044 3 18 3C18.7956 3 19.5587 3.31607 20.1213 3.87868C20.6839 4.44129 21 5.20435 21 6C21 6.79565 20.6839 7.55871 20.1213 8.12132C19.5587 8.68393 18.7956 9 18 9C17.2044 9 16.4413 8.68393 15.8787 8.12132C15.3161 7.55871 15 6.79565 15 6ZM18 5C17.7348 5 17.4804 5.10536 17.2929 5.29289C17.1054 5.48043 17 5.73478 17 6C17 6.26522 17.1054 6.51957 17.2929 6.70711C17.4804 6.89464 17.7348 7 18 7C18.2652 7 18.5196 6.89464 18.7071 6.70711C18.8946 6.51957 19 6.26522 19 6C19 5.73478 18.8946 5.48043 18.7071 5.29289C18.5196 5.10536 18.2652 5 18 5Z" fill="currentColor"/>
<path d="M5.5 6C5.36739 6 5.24021 5.94732 5.14645 5.85355C5.05268 5.75979 5 5.63261 5 5.5V4.5C5 4.36739 5.05268 4.24022 5.14645 4.14645C5.24021 4.05268 5.36739 4 5.5 4H6.1C7.15076 3.99983 8.19126 4.20666 9.16207 4.60868C10.1329 5.01069 11.015 5.60002 11.758 6.343L16.92 11.505C16.9746 11.5597 17.0157 11.6264 17.0402 11.6997C17.0647 11.7731 17.0718 11.8511 17.0611 11.9276C17.0503 12.0042 17.022 12.0772 16.9782 12.1409C16.9345 12.2047 16.8766 12.2574 16.809 12.295L15.899 12.801C15.804 12.8536 15.6945 12.8739 15.5869 12.8587C15.4794 12.8436 15.3797 12.7938 15.303 12.717L12 9.414L8.697 12.717C8.62025 12.7938 8.52058 12.8436 8.41306 12.8587C8.30553 12.8739 8.19599 12.8536 8.101 12.801L7.191 12.296C7.12351 12.2583 7.06568 12.2055 7.02204 12.1417C6.97839 12.078 6.95013 12.0049 6.93948 11.9284C6.92882 11.8518 6.93605 11.7738 6.9606 11.7006C6.98516 11.6273 7.02637 11.5607 7.081 11.506L10.586 8L10.343 7.757C9.21788 6.63207 7.69203 6.00007 6.101 6H5.5ZM5 15.5C4.854 15.5 4.71 15.54 4.586 15.615L3.372 16.343C2.80054 16.6859 2.16153 16.9009 1.499 16.973C1.225 17.003 1 16.776 1 16.5V15.5C1 15.224 1.226 15.005 1.497 14.952C1.794 14.895 2.081 14.785 2.343 14.628L3.557 13.9C3.9929 13.6385 4.49167 13.5004 5 13.5004C5.50833 13.5004 6.0071 13.6385 6.443 13.9L8.086 14.885C8.21111 14.9599 8.35419 14.9995 8.5 14.9995C8.64581 14.9995 8.78889 14.9599 8.914 14.885L10.557 13.9C10.9929 13.6385 11.4917 13.5004 12 13.5004C12.5083 13.5004 13.0071 13.6385 13.443 13.9L15.086 14.885C15.2111 14.9599 15.3542 14.9995 15.5 14.9995C15.6458 14.9995 15.7889 14.9599 15.914 14.885L17.557 13.9C17.9929 13.6385 18.4917 13.5004 19 13.5004C19.5083 13.5004 20.0071 13.6385 20.443 13.9L21.657 14.628C21.919 14.785 22.206 14.895 22.503 14.952C22.774 15.005 23 15.224 23 15.5V16.5C23 16.776 22.776 17.003 22.501 16.973C21.8385 16.9009 21.1995 16.6859 20.628 16.343L19.414 15.615C19.2889 15.5401 19.1458 15.5005 19 15.5005C18.8542 15.5005 18.7111 15.5401 18.586 15.615L16.943 16.6C16.5071 16.8615 16.0083 16.9996 15.5 16.9996C14.9917 16.9996 14.4929 16.8615 14.057 16.6L12.414 15.615C12.2889 15.5401 12.1458 15.5005 12 15.5005C11.8542 15.5005 11.7111 15.5401 11.586 15.615L9.943 16.6C9.5071 16.8615 9.00833 16.9996 8.5 16.9996C7.99167 16.9996 7.4929 16.8615 7.057 16.6L5.414 15.615C5.28895 15.5399 5.14586 15.5002 5 15.5ZM5 20C4.854 20 4.71 20.04 4.586 20.115L3.372 20.843C2.80054 21.1859 2.16153 21.4009 1.499 21.473C1.225 21.503 1 21.276 1 21V20C1 19.724 1.226 19.505 1.497 19.452C1.794 19.395 2.081 19.285 2.343 19.128L3.557 18.4C3.9929 18.1385 4.49167 18.0004 5 18.0004C5.50833 18.0004 6.0071 18.1385 6.443 18.4L8.086 19.385C8.21111 19.4599 8.35419 19.4995 8.5 19.4995C8.64581 19.4995 8.78889 19.4599 8.914 19.385L10.557 18.4C10.9929 18.1385 11.4917 18.0004 12 18.0004C12.5083 18.0004 13.0071 18.1385 13.443 18.4L15.086 19.385C15.2111 19.4599 15.3542 19.4995 15.5 19.4995C15.6458 19.4995 15.7889 19.4599 15.914 19.385L17.557 18.4C17.9929 18.1385 18.4917 18.0004 19 18.0004C19.5083 18.0004 20.0071 18.1385 20.443 18.4L21.657 19.128C21.919 19.285 22.206 19.395 22.503 19.452C22.774 19.505 23 19.724 23 20V21C23 21.276 22.776 21.503 22.501 21.473C21.8385 21.4009 21.1995 21.1859 20.628 20.843L19.414 20.115C19.2889 20.0401 19.1458 20.0005 19 20.0005C18.8542 20.0005 18.7111 20.0401 18.586 20.115L16.943 21.1C16.5071 21.3615 16.0083 21.4996 15.5 21.4996C14.9917 21.4996 14.4929 21.3615 14.057 21.1L12.414 20.115C12.2889 20.0401 12.1458 20.0005 12 20.0005C11.8542 20.0005 11.7111 20.0401 11.586 20.115L9.943 21.1C9.5071 21.3615 9.00833 21.4996 8.5 21.4996C7.99167 21.4996 7.4929 21.3615 7.057 21.1L5.414 20.115C5.28895 20.0399 5.14586 20.0002 5 20Z" fill="currentColor"/>
</svg>
