<svg width="22" height="24" viewBox="0 0 22 18" fill="currentColor" xmlns="http://www.w3.org/2000/svg">
<path fill-rule="evenodd" clip-rule="evenodd" d="M0 3.25C0 2.45435 0.31607 1.69129 0.87868 1.12868C1.44129 0.566071 2.20435 0.25 3 0.25H15.063C15.5029 0.250018 15.9374 0.346774 16.3357 0.533411C16.7341 0.720048 17.0865 0.992 17.368 1.33L21.305 6.054C21.754 6.59305 22 7.27242 22 7.974V11.25C22 11.8713 21.807 12.4772 21.4479 12.9841C21.0888 13.491 20.5811 13.874 19.995 14.08C20.0182 14.4807 19.9607 14.882 19.8259 15.2601C19.6912 15.6382 19.482 15.9854 19.2106 16.2812C18.9393 16.577 18.6113 16.8153 18.2462 16.982C17.8811 17.1487 17.4863 17.2405 17.085 17.2519C16.6838 17.2633 16.2844 17.194 15.9104 17.0482C15.5364 16.9025 15.1955 16.6831 14.9078 16.4032C14.6202 16.1233 14.3916 15.7885 14.2357 15.4186C14.0797 15.0488 13.9996 14.6514 14 14.25H8C8.00042 14.6514 7.92028 15.0488 7.76434 15.4186C7.6084 15.7885 7.37982 16.1233 7.09215 16.4032C6.80448 16.6831 6.46356 16.9025 6.08959 17.0482C5.71561 17.194 5.31619 17.2633 4.91496 17.2519C4.51374 17.2405 4.11888 17.1487 3.75377 16.982C3.38866 16.8153 3.06072 16.577 2.78937 16.2812C2.51802 15.9854 2.30879 15.6382 2.17406 15.2601C2.03933 14.882 1.98184 14.4807 2.005 14.08C1.41899 13.8738 0.911407 13.4909 0.55228 12.984C0.193154 12.4771 0.000185955 11.8712 0 11.25V3.25ZM7.236 12.25H14.764C15.314 11.636 16.112 11.25 17 11.25C17.877 11.25 18.667 11.627 19.215 12.227C19.4376 12.178 19.6368 12.0544 19.7795 11.8767C19.9223 11.6991 20.0001 11.4779 20 11.25V8.25H2V11.25C1.99991 11.4779 2.07769 11.6991 2.22046 11.8767C2.36322 12.0544 2.5624 12.178 2.785 12.227C3.06576 11.9188 3.40783 11.6727 3.78927 11.5045C4.17071 11.3362 4.5831 11.2495 5 11.25C5.888 11.25 6.687 11.636 7.236 12.25ZM15.831 2.61L18.865 6.25H14V2.25H15.063C15.2096 2.25006 15.3543 2.28233 15.4871 2.34454C15.6198 2.40675 15.7372 2.49738 15.831 2.61ZM8 6.25H12V2.25H8V6.25ZM6 2.25H3C2.73478 2.25 2.48043 2.35536 2.29289 2.54289C2.10536 2.73043 2 2.98478 2 3.25V6.25H6V2.25ZM16 14.25C16 13.9848 16.1054 13.7304 16.2929 13.5429C16.4804 13.3554 16.7348 13.25 17 13.25C17.2652 13.25 17.5196 13.3554 17.7071 13.5429C17.8946 13.7304 18 13.9848 18 14.25C18 14.5152 17.8946 14.7696 17.7071 14.9571C17.5196 15.1446 17.2652 15.25 17 15.25C16.7348 15.25 16.4804 15.1446 16.2929 14.9571C16.1054 14.7696 16 14.5152 16 14.25ZM5 13.25C4.73478 13.25 4.48043 13.3554 4.29289 13.5429C4.10536 13.7304 4 13.9848 4 14.25C4 14.5152 4.10536 14.7696 4.29289 14.9571C4.48043 15.1446 4.73478 15.25 5 15.25C5.26522 15.25 5.51957 15.1446 5.70711 14.9571C5.89464 14.7696 6 14.5152 6 14.25C6 13.9848 5.89464 13.7304 5.70711 13.5429C5.51957 13.3554 5.26522 13.25 5 13.25Z" fill="currentColor"/>
</svg>
