<svg width="32" height="32" viewBox="0 0 24 24" fill="currentColor" xmlns="http://www.w3.org/2000/svg">
<path d="M2 5C2 4.20435 2.31607 3.44129 2.87868 2.87868C3.44129 2.31607 4.20435 2 5 2H19C19.7956 2 20.5587 2.31607 21.1213 2.87868C21.6839 3.44129 22 4.20435 22 5V11C22.0001 11.7094 21.7489 12.3959 21.2908 12.9377C20.8328 13.4794 20.1976 13.8412 19.498 13.959C19.225 14.004 19 13.776 19 13.5V12.5C19 12.224 19.237 12.01 19.48 11.878C19.6375 11.7918 19.7689 11.6648 19.8604 11.5103C19.9519 11.3558 20.0001 11.1796 20 11V5C20 4.73478 19.8946 4.48043 19.7071 4.29289C19.5196 4.10536 19.2652 4 19 4H5C4.73478 4 4.48043 4.10536 4.29289 4.29289C4.10536 4.48043 4 4.73478 4 5V11C3.99987 11.1796 4.04808 11.3558 4.13958 11.5103C4.23108 11.6648 4.36248 11.7918 4.52 11.878C4.763 12.01 5 12.224 5 12.5V13.5C5 13.776 4.774 14.004 4.502 13.959C3.80243 13.8412 3.16722 13.4794 2.70917 12.9377C2.25111 12.3959 1.99985 11.7094 2 11V5Z" fill="currentColor"/>
<path d="M6 11.5C6 11.6326 6.05268 11.7598 6.14645 11.8536C6.24021 11.9473 6.36739 12 6.5 12H17.5C17.6326 12 17.7598 11.9473 17.8536 11.8536C17.9473 11.7598 18 11.6326 18 11.5V10.5C18 10.3674 17.9473 10.2402 17.8536 10.1464C17.7598 10.0527 17.6326 10 17.5 10H6.5C6.36739 10 6.24021 10.0527 6.14645 10.1464C6.05268 10.2402 6 10.3674 6 10.5V11.5ZM7 16V14.5C7 14.3674 7.05268 14.2402 7.14645 14.1464C7.24021 14.0527 7.36739 14 7.5 14H8.5C8.63261 14 8.75979 14.0527 8.85355 14.1464C8.94732 14.2402 9 14.3674 9 14.5V16C9.0003 16.9747 8.64473 17.9159 8.00008 18.6469C7.35542 19.3779 6.46605 19.8484 5.499 19.97C5.225 20.003 5 19.776 5 19.5V18.5C5 18.224 5.227 18.006 5.495 17.938C5.92549 17.828 6.30711 17.5778 6.57963 17.2269C6.85214 16.876 7.00005 16.4443 7 16ZM16.5 14C16.6326 14 16.7598 14.0527 16.8536 14.1464C16.9473 14.2402 17 14.3674 17 14.5V16C17 16.4443 17.1479 16.876 17.4204 17.2269C17.6929 17.5778 18.0745 17.828 18.505 17.938C18.773 18.006 19 18.224 19 18.5V19.5C19 19.776 18.775 20.003 18.501 19.97C17.534 19.8484 16.6446 19.3779 15.9999 18.6469C15.3553 17.9159 14.9997 16.9747 15 16V14.5C15 14.3674 15.0527 14.2402 15.1464 14.1464C15.2402 14.0527 15.3674 14 15.5 14H16.5ZM11.5 21C11.3674 21 11.2402 20.9473 11.1464 20.8536C11.0527 20.7598 11 20.6326 11 20.5V14.5C11 14.3674 11.0527 14.2402 11.1464 14.1464C11.2402 14.0527 11.3674 14 11.5 14H12.5C12.6326 14 12.7598 14.0527 12.8536 14.1464C12.9473 14.2402 13 14.3674 13 14.5V20.5C13 20.6326 12.9473 20.7598 12.8536 20.8536C12.7598 20.9473 12.6326 21 12.5 21H11.5ZM17 6C16.7348 6 16.4804 6.10536 16.2929 6.29289C16.1054 6.48043 16 6.73478 16 7C16 7.26522 16.1054 7.51957 16.2929 7.70711C16.4804 7.89464 16.7348 8 17 8C17.2652 8 17.5196 7.89464 17.7071 7.70711C17.8946 7.51957 18 7.26522 18 7C18 6.73478 17.8946 6.48043 17.7071 6.29289C17.5196 6.10536 17.2652 6 17 6Z" fill="currentColor"/>
</svg>
