<svg width="32" height="32" viewBox="0 0 24 24" fill="currentColor" xmlns="http://www.w3.org/2000/svg">
<path fill-rule="evenodd" clip-rule="evenodd" d="M9 2.50621C9.00002 2.25334 9.06397 2.00459 9.1859 1.78306C9.30783 1.56153 9.48378 1.37443 9.69741 1.23913C9.91103 1.10383 10.1554 1.02473 10.4078 1.00919C10.6602 0.993639 10.9124 1.04215 11.141 1.15021L17.434 4.12721C18.598 4.67721 18.574 6.34121 17.394 6.85721L11 9.65421V16.5002C11 16.6328 10.9473 16.76 10.8536 16.8538C10.7598 16.9475 10.6326 17.0002 10.5 17.0002H9.5C9.36739 17.0002 9.24021 16.9475 9.14645 16.8538C9.05268 16.76 9 16.6328 9 16.5002V2.50621ZM11 7.47121L15.586 5.46521L11 3.29521V7.47121Z" fill="currentColor"/>
<path d="M5 17.4999C5 17.3699 5.06 17.1509 5.366 16.8539C5.674 16.5539 6.173 16.2369 6.87 15.9499C6.90828 15.9344 6.94108 15.9079 6.96424 15.8737C6.98739 15.8395 6.99984 15.7992 7 15.7579V14.4599C7.00124 14.3819 6.98347 14.3048 6.94821 14.2353C6.91296 14.1657 6.86129 14.1058 6.79768 14.0607C6.73406 14.0156 6.66042 13.9867 6.58311 13.9764C6.5058 13.9662 6.42717 13.9749 6.354 14.0019C6.271 14.0339 6.189 14.0659 6.109 14.0989C5.269 14.4459 4.522 14.8829 3.97 15.4199C3.416 15.9599 3 16.6629 3 17.4989C3 18.3349 3.416 19.0379 3.97 19.5779C4.522 20.1149 5.268 20.5519 6.109 20.8979C7.795 21.5929 10.055 21.9979 12.5 21.9979C14.945 21.9979 17.205 21.5929 18.891 20.8979C19.731 20.5519 20.478 20.1149 21.03 19.5779C21.584 19.0379 22 18.3349 22 17.4979C22 16.6629 21.584 15.9599 21.03 15.4199C20.478 14.8829 19.732 14.4459 18.891 14.0999C17.441 13.5019 15.564 13.1179 13.511 13.0219C13.4446 13.0192 13.3784 13.03 13.3162 13.0536C13.2541 13.0773 13.1975 13.1133 13.1497 13.1595C13.1019 13.2057 13.064 13.2611 13.0383 13.3223C13.0126 13.3836 12.9995 13.4494 13 13.5159V14.5179C13.0011 14.6484 13.0523 14.7735 13.1429 14.8674C13.2335 14.9614 13.3566 15.017 13.487 15.0229C15.329 15.1159 16.947 15.4619 18.13 15.9489C18.827 16.2359 19.326 16.5529 19.635 16.8529C19.94 17.1499 20 17.3679 20 17.4989C20 17.6289 19.94 17.8469 19.634 18.1449C19.326 18.4449 18.827 18.7619 18.13 19.0489C16.74 19.6209 14.75 19.9989 12.5 19.9989C10.25 19.9989 8.26 19.6209 6.87 19.0489C6.173 18.7619 5.674 18.4449 5.366 18.1449C5.06 17.8479 5 17.6299 5 17.4999Z" fill="currentColor"/>
</svg>
