<svg width="32" height="32" viewBox="0 0 24 25" fill="currentColor" xmlns="http://www.w3.org/2000/svg">
<path fill-rule="evenodd" clip-rule="evenodd" d="M18.06 3.396C17.9663 3.30257 17.8393 3.25011 17.707 3.25011C17.5747 3.25011 17.4477 3.30257 17.354 3.396L16.646 4.104C16.5523 4.19776 16.4996 4.32492 16.4996 4.4575C16.4996 4.59008 16.5523 4.71724 16.646 4.811L18 6.164V8.422C18.0001 8.95239 18.2109 9.46101 18.586 9.836L20 11.25V18.25C20 18.5152 19.8946 18.7696 19.7071 18.9571C19.5196 19.1446 19.2652 19.25 19 19.25C18.7348 19.25 18.4804 19.1446 18.2929 18.9571C18.1054 18.7696 18 18.5152 18 18.25V15.25C18 14.4544 17.6839 13.6913 17.1213 13.1287C16.5587 12.5661 15.7956 12.25 15 12.25H14V6.25C14 5.45435 13.6839 4.69129 13.1213 4.12868C12.5587 3.56607 11.7956 3.25 11 3.25H5C4.20435 3.25 3.44129 3.56607 2.87868 4.12868C2.31607 4.69129 2 5.45435 2 6.25V20.25C2 20.5152 2.10536 20.7696 2.29289 20.9571C2.48043 21.1446 2.73478 21.25 3 21.25H13C13.2652 21.25 13.5196 21.1446 13.7071 20.9571C13.8946 20.7696 14 20.5152 14 20.25V14.25H15C15.2652 14.25 15.5196 14.3554 15.7071 14.5429C15.8946 14.7304 16 14.9848 16 15.25V18.25C16 19.0456 16.3161 19.8087 16.8787 20.3713C17.4413 20.9339 18.2044 21.25 19 21.25C19.7956 21.25 20.5587 20.9339 21.1213 20.3713C21.6839 19.8087 22 19.0456 22 18.25V7.75C21.9999 7.48481 21.8946 7.23049 21.707 7.043L18.061 3.396H18.06ZM4 6.25C4 5.98478 4.10536 5.73043 4.29289 5.54289C4.48043 5.35536 4.73478 5.25 5 5.25H11C11.2652 5.25 11.5196 5.35536 11.7071 5.54289C11.8946 5.73043 12 5.98478 12 6.25V19.25H4V6.25ZM9 8.917V11.25H10.25C10.3893 11.25 10.5258 11.2888 10.6443 11.362C10.7628 11.4352 10.8585 11.54 10.9208 11.6646C10.9831 11.7892 11.0095 11.9286 10.997 12.0674C10.9845 12.2061 10.9336 12.3386 10.85 12.45L8.2 15.983C8.11594 16.0947 7.99889 16.1772 7.8654 16.2188C7.73191 16.2604 7.58872 16.259 7.45608 16.2148C7.32343 16.1706 7.20803 16.0858 7.12619 15.9724C7.04435 15.859 7.00021 15.7228 7 15.583V13.25H5.75C5.61072 13.25 5.47418 13.2112 5.3557 13.138C5.23722 13.0648 5.14147 12.96 5.07918 12.8354C5.01689 12.7108 4.99052 12.5714 5.00303 12.4326C5.01554 12.2939 5.06643 12.1614 5.15 12.05L7.8 8.517C7.88406 8.40527 8.00111 8.32278 8.1346 8.28119C8.26809 8.2396 8.41128 8.24101 8.54392 8.28523C8.67657 8.32944 8.79197 8.41422 8.87381 8.52759C8.95565 8.64096 8.99979 8.77718 9 8.917Z" fill="currentColor"/>
</svg>
