<svg width="24" height="24" viewBox="0 0 18 18" fill="currentColor" xmlns="http://www.w3.org/2000/svg">
<path fill-rule="evenodd" clip-rule="evenodd" d="M2.29184 0C1.84077 3.23568e-05 1.39975 0.133156 1.024 0.382698C0.648251 0.632239 0.354486 0.987103 0.179501 1.40284C0.00451507 1.81858 -0.0439115 2.27671 0.0402869 2.71984C0.124485 3.16297 0.337565 3.57141 0.652837 3.894L7.56984 10.968C7.62984 11.03 7.69484 11.088 7.76084 11.14C7.90084 11.251 7.99984 11.412 7.99984 11.59V15.5C7.99984 15.6326 7.94716 15.7598 7.85339 15.8536C7.75962 15.9473 7.63245 16 7.49984 16H3.49984C3.36723 16 3.24005 16.0527 3.14628 16.1464C3.05252 16.2402 2.99984 16.3674 2.99984 16.5V17.5C2.99984 17.6326 3.05252 17.7598 3.14628 17.8536C3.24005 17.9473 3.36723 18 3.49984 18H14.4998C14.6324 18 14.7596 17.9473 14.8534 17.8536C14.9472 17.7598 14.9998 17.6326 14.9998 17.5V16.5C14.9998 16.3674 14.9472 16.2402 14.8534 16.1464C14.7596 16.0527 14.6324 16 14.4998 16H10.4998C10.3672 16 10.2401 15.9473 10.1463 15.8536C10.0525 15.7598 9.99984 15.6326 9.99984 15.5V11.59C9.99984 11.412 10.0978 11.251 10.2388 11.14C10.3048 11.088 10.3688 11.03 10.4298 10.968L17.3468 3.894C17.6621 3.57141 17.8752 3.16297 17.9594 2.71984C18.0436 2.27671 17.9952 1.81858 17.8202 1.40284C17.6452 0.987103 17.3514 0.632239 16.9757 0.382698C16.5999 0.133156 16.1589 3.23568e-05 15.7078 0H2.29184ZM1.99984 2.292C1.99984 2.13 2.12984 2 2.29184 2H15.7078C15.7653 1.99998 15.8215 2.01692 15.8694 2.0487C15.9172 2.08047 15.9547 2.12566 15.977 2.17861C15.9993 2.23157 16.0055 2.28993 15.9948 2.34639C15.9841 2.40284 15.957 2.45489 15.9168 2.496L14.4458 4H3.55384L2.08384 2.496C2.03024 2.4416 2.00008 2.36837 1.99984 2.292ZM5.50984 6L8.29584 8.85C8.34238 8.89748 8.39793 8.93521 8.45923 8.96096C8.52053 8.98672 8.58635 8.99999 8.65284 9H9.34684C9.41333 8.99999 9.47915 8.98672 9.54045 8.96096C9.60175 8.93521 9.65729 8.89748 9.70384 8.85L12.4898 6H5.50984Z" fill="currentColor"/>
</svg>
