<svg width="32" height="32" viewBox="0 0 32 32" fill="none" xmlns="http://www.w3.org/2000/svg">
<path d="M12.0029 19.3056C12.0029 19.4761 12.0707 19.6396 12.1912 19.7602C12.3118 19.8807 12.4753 19.9485 12.6458 19.9485H13.9315C14.102 19.9485 14.2655 19.8807 14.3861 19.7602C14.5066 19.6396 14.5744 19.4761 14.5744 19.3056V16.7342C14.5744 16.5637 14.5066 16.4002 14.3861 16.2796C14.2655 16.159 14.102 16.0913 13.9315 16.0913H12.6458C12.4753 16.0913 12.3118 16.159 12.1912 16.2796C12.0707 16.4002 12.0029 16.5637 12.0029 16.7342V19.3056Z" fill="#191E3B"/>
<path fill-rule="evenodd" clip-rule="evenodd" d="M16.6418 2.28083C17.0147 2.2063 17.3995 2.2154 17.7685 2.30749C18.1374 2.39958 18.4814 2.57237 18.7756 2.8134C19.0697 3.05443 19.3067 3.3577 19.4696 3.70137C19.6324 4.04504 19.717 4.42055 19.7172 4.80085V27.3794C19.7172 27.7598 19.6327 28.1354 19.47 28.4793C19.3072 28.8231 19.0702 29.1265 18.7761 29.3677C18.4819 29.6089 18.1379 29.7818 17.7688 29.8739C17.3997 29.9661 17.0148 29.9752 16.6418 29.9007L6.35601 27.8435C5.7733 27.7271 5.24891 27.4124 4.872 26.9529C4.49509 26.4935 4.28893 25.9178 4.28857 25.3235V6.85928C4.28864 6.26482 4.49466 5.68874 4.87159 5.22906C5.24853 4.76938 5.77308 4.4545 6.35601 4.33799L16.6418 2.28083ZM17.1458 4.80085L6.86001 6.858V25.3222L17.1458 27.3794V4.80085Z" fill="#191E3B"/>
<path d="M24.8605 25.0911H22.9319C22.7614 25.0911 22.5979 25.1588 22.4774 25.2793C22.3568 25.3999 22.2891 25.5634 22.2891 25.7339V27.0196C22.2891 27.1901 22.3568 27.3536 22.4774 27.4742C22.5979 27.5948 22.7614 27.6625 22.9319 27.6625H26.1462C26.4872 27.6625 26.8142 27.527 27.0554 27.2859C27.2965 27.0448 27.4319 26.7178 27.4319 26.3768V5.80525C27.4319 5.46426 27.2965 5.13723 27.0554 4.89611C26.8142 4.65499 26.4872 4.51953 26.1462 4.51953H22.9319C22.7614 4.51953 22.5979 4.58726 22.4774 4.70782C22.3568 4.82838 22.2891 4.99189 22.2891 5.16239V6.44811C22.2891 6.61861 22.3568 6.78212 22.4774 6.90268C22.5979 7.02324 22.7614 7.09097 22.9319 7.09097H24.8605V25.0911Z" fill="#191E3B"/>
</svg>
