<svg width="22" height="24" viewBox="0 0 24 24" fill="currentColor" xmlns="http://www.w3.org/2000/svg">
<path d="M21.8602 4.99102C21.9057 4.94541 21.9417 4.89117 21.966 4.83146C21.9903 4.77175 22.0025 4.70779 22.0017 4.64333C22.001 4.57887 21.9874 4.51521 21.9617 4.45608C21.936 4.39696 21.8988 4.34355 21.8522 4.29902C18.9166 1.53269 15.0338 -0.00548923 11.0002 1.62117e-05C6.96669 -0.00575971 3.08388 1.53205 0.148167 4.29802C0.101409 4.34257 0.0640412 4.39603 0.0382647 4.45525C0.0124882 4.51447 -0.00117535 4.57825 -0.00192088 4.64283C-0.00266641 4.70741 0.00952123 4.77149 0.0339238 4.83129C0.0583264 4.89109 0.0944503 4.9454 0.140167 4.99102L0.836167 5.69602C0.930274 5.78935 1.05702 5.84237 1.18955 5.84387C1.32208 5.84536 1.44998 5.7952 1.54617 5.70402C4.11031 3.30739 7.49037 1.97631 11.0002 1.98102C14.6542 1.98102 17.9782 3.39402 20.4552 5.70402C20.5513 5.7949 20.679 5.84487 20.8113 5.84338C20.9436 5.84189 21.0701 5.78905 21.1642 5.69602L21.8592 4.99102H21.8602ZM17.6852 9.22002C17.7311 9.17489 17.7674 9.12093 17.7919 9.06139C17.8164 9.00185 17.8286 8.93797 17.8278 8.8736C17.8269 8.80922 17.8131 8.74568 17.787 8.6868C17.761 8.62792 17.7232 8.57493 17.6762 8.53102C15.8533 6.86297 13.471 5.93945 11.0002 5.94302C8.42817 5.94302 6.08517 6.92302 4.32417 8.53102C4.12417 8.71402 4.12417 9.02602 4.31417 9.21902L5.00917 9.92302C5.10438 10.0162 5.23174 10.0694 5.36497 10.0714C5.4982 10.0734 5.62714 10.0243 5.72517 9.93402C7.17565 8.63674 9.05419 7.92093 11.0002 7.92402C13.0252 7.92402 14.8742 8.68402 16.2752 9.93402C16.373 10.0241 16.5017 10.0733 16.6347 10.0714C16.7677 10.0696 16.8949 10.0168 16.9902 9.92402L17.6852 9.21902V9.22002ZM13.5152 13.443C13.7042 13.253 13.7072 12.943 13.4992 12.773C12.7933 12.1973 11.91 11.8835 10.9992 11.885C10.0522 11.885 9.18317 12.218 8.50117 12.773C8.29317 12.943 8.29617 13.252 8.48517 13.443L10.6482 15.633C10.8422 15.83 11.1582 15.83 11.3532 15.633L13.5152 13.443Z" fill="currentColor"/>
</svg>
