<svg width="24" height="24" viewBox="0 0 22 13" fill="currentColor" xmlns="http://www.w3.org/2000/svg">
<path d="M3.586 2.61512C3.71107 2.54012 3.85417 2.50051 4 2.50051C4.14583 2.50051 4.28893 2.54012 4.414 2.61512L6.057 3.60012C6.4929 3.86163 6.99167 3.99976 7.5 3.99976C8.00833 3.99976 8.5071 3.86163 8.943 3.60012L10.586 2.61512C10.7111 2.54012 10.8542 2.50051 11 2.50051C11.1458 2.50051 11.2889 2.54012 11.414 2.61512L13.057 3.60012C13.4929 3.86163 13.9917 3.99976 14.5 3.99976C15.0083 3.99976 15.5071 3.86163 15.943 3.60012L17.586 2.61512C17.7111 2.54012 17.8542 2.50051 18 2.50051C18.1458 2.50051 18.2889 2.54012 18.414 2.61512L19.628 3.34312C20.1995 3.68604 20.8385 3.90098 21.501 3.97312C21.776 4.00312 22.001 3.77612 22.001 3.50012V2.50012C22.001 2.22412 21.774 2.00512 21.503 1.95212C21.2043 1.89426 20.918 1.78461 20.657 1.62812L19.443 0.900125C19.0071 0.638727 18.5083 0.500655 18 0.500655C17.4917 0.500655 16.9929 0.638727 16.557 0.900125L14.914 1.88512C14.7889 1.96013 14.6458 1.99974 14.5 1.99974C14.3542 1.99974 14.2111 1.96013 14.086 1.88512L12.443 0.900125C12.0071 0.638727 11.5083 0.500655 11 0.500655C10.4917 0.500655 9.99294 0.638727 9.557 0.900125L7.914 1.88512C7.78893 1.96013 7.64583 1.99974 7.5 1.99974C7.35417 1.99974 7.21107 1.96013 7.086 1.88512L5.443 0.900125C5.0071 0.638622 4.50833 0.500488 4 0.500488C3.49167 0.500488 2.9929 0.638622 2.557 0.900125L1.343 1.62812C1.08204 1.78461 0.79573 1.89426 0.497 1.95212C0.226 2.00512 0 2.22412 0 2.50012V3.50012C0 3.77612 0.225 4.00312 0.5 3.97312C1.16219 3.90084 1.80084 3.68591 2.372 3.34312L3.586 2.61512ZM4 7.00012C3.854 7.00012 3.71 7.04012 3.586 7.11512L2.372 7.84312C1.80054 8.18604 1.16153 8.40098 0.499 8.47312C0.225 8.50312 0 8.27612 0 8.00012V7.00012C0 6.72412 0.226 6.50512 0.497 6.45212C0.794 6.39512 1.081 6.28512 1.343 6.12812L2.557 5.40012C2.9929 5.13862 3.49167 5.00049 4 5.00049C4.50833 5.00049 5.0071 5.13862 5.443 5.40012L7.086 6.38512C7.21111 6.46002 7.35419 6.49958 7.5 6.49958C7.64581 6.49958 7.78889 6.46002 7.914 6.38512L9.557 5.40012C9.9929 5.13862 10.4917 5.00049 11 5.00049C11.5083 5.00049 12.0071 5.13862 12.443 5.40012L14.086 6.38512C14.2111 6.46002 14.3542 6.49958 14.5 6.49958C14.6458 6.49958 14.7889 6.46002 14.914 6.38512L16.557 5.40012C16.9929 5.13862 17.4917 5.00049 18 5.00049C18.5083 5.00049 19.0071 5.13862 19.443 5.40012L20.657 6.12812C20.919 6.28512 21.206 6.39512 21.503 6.45212C21.774 6.50512 22 6.72412 22 7.00012V8.00012C22 8.27612 21.776 8.50312 21.501 8.47312C20.8385 8.40098 20.1995 8.18604 19.628 7.84312L18.414 7.11512C18.2889 7.04023 18.1458 7.00067 18 7.00067C17.8542 7.00067 17.7111 7.04023 17.586 7.11512L15.943 8.10012C15.5071 8.36163 15.0083 8.49976 14.5 8.49976C13.9917 8.49976 13.4929 8.36163 13.057 8.10012L11.414 7.11512C11.2889 7.04023 11.1458 7.00067 11 7.00067C10.8542 7.00067 10.7111 7.04023 10.586 7.11512L8.943 8.10012C8.5071 8.36163 8.00833 8.49976 7.5 8.49976C6.99167 8.49976 6.4929 8.36163 6.057 8.10012L4.414 7.11512C4.28895 7.04004 4.14586 7.00029 4 7.00012ZM4 11.5001C3.854 11.5001 3.71 11.5401 3.586 11.6151L2.372 12.3431C1.80054 12.686 1.16153 12.901 0.499 12.9731C0.225 13.0031 0 12.7761 0 12.5001V11.5001C0 11.2241 0.226 11.0051 0.497 10.9521C0.794 10.8951 1.081 10.7851 1.343 10.6281L2.557 9.90012C2.9929 9.63862 3.49167 9.50049 4 9.50049C4.50833 9.50049 5.0071 9.63862 5.443 9.90012L7.086 10.8851C7.21111 10.96 7.35419 10.9996 7.5 10.9996C7.64581 10.9996 7.78889 10.96 7.914 10.8851L9.557 9.90012C9.9929 9.63862 10.4917 9.50049 11 9.50049C11.5083 9.50049 12.0071 9.63862 12.443 9.90012L14.086 10.8851C14.2111 10.96 14.3542 10.9996 14.5 10.9996C14.6458 10.9996 14.7889 10.96 14.914 10.8851L16.557 9.90012C16.9929 9.63862 17.4917 9.50049 18 9.50049C18.5083 9.50049 19.0071 9.63862 19.443 9.90012L20.657 10.6281C20.919 10.7851 21.206 10.8951 21.503 10.9521C21.774 11.0051 22 11.2241 22 11.5001V12.5001C22 12.7761 21.776 13.0031 21.501 12.9731C20.8385 12.901 20.1995 12.686 19.628 12.3431L18.414 11.6151C18.2889 11.5402 18.1458 11.5007 18 11.5007C17.8542 11.5007 17.7111 11.5402 17.586 11.6151L15.943 12.6001C15.5071 12.8616 15.0083 12.9998 14.5 12.9998C13.9917 12.9998 13.4929 12.8616 13.057 12.6001L11.414 11.6151C11.2889 11.5402 11.1458 11.5007 11 11.5007C10.8542 11.5007 10.7111 11.5402 10.586 11.6151L8.943 12.6001C8.5071 12.8616 8.00833 12.9998 7.5 12.9998C6.99167 12.9998 6.4929 12.8616 6.057 12.6001L4.414 11.6151C4.28895 11.54 4.14586 11.5003 4 11.5001Z" fill="currentColor"/>
</svg>
