<svg width="32" height="32" viewBox="0 0 24 24" fill="currentColor" xmlns="http://www.w3.org/2000/svg">
<path fill-rule="evenodd" clip-rule="evenodd" d="M4 5C4 4.60603 4.0776 4.21593 4.22836 3.85195C4.37913 3.48797 4.6001 3.15726 4.87868 2.87868C5.15726 2.6001 5.48797 2.37913 5.85195 2.22836C6.21593 2.0776 6.60603 2 7 2C7.39397 2 7.78407 2.0776 8.14805 2.22836C8.51203 2.37913 8.84274 2.6001 9.12132 2.87868C9.3999 3.15726 9.62087 3.48797 9.77164 3.85195C9.9224 4.21593 10 4.60603 10 5C10 5.79565 9.68393 6.55871 9.12132 7.12132C8.55871 7.68393 7.79565 8 7 8C6.20435 8 5.44129 7.68393 4.87868 7.12132C4.31607 6.55871 4 5.79565 4 5ZM7 4C6.73478 4 6.48043 4.10536 6.29289 4.29289C6.10536 4.48043 6 4.73478 6 5C6 5.26522 6.10536 5.51957 6.29289 5.70711C6.48043 5.89464 6.73478 6 7 6C7.26522 6 7.51957 5.89464 7.70711 5.70711C7.89464 5.51957 8 5.26522 8 5C8 4.73478 7.89464 4.48043 7.70711 4.29289C7.51957 4.10536 7.26522 4 7 4ZM2 18V15H1.5C1.36739 15 1.24021 14.9473 1.14645 14.8536C1.05268 14.7598 1 14.6326 1 14.5V13.5C1 13.3674 1.05268 13.2402 1.14645 13.1464C1.24021 13.0527 1.36739 13 1.5 13H4V12.828C3.99972 12.0706 4.22412 11.3302 4.64479 10.7004C5.06546 10.0706 5.6635 9.57975 6.36323 9.28994C7.06296 9.00014 7.83293 8.92441 8.57571 9.07234C9.31849 9.22028 10.0007 9.58522 10.536 10.121L13.414 13H22.5C22.6326 13 22.7598 13.0527 22.8536 13.1464C22.9473 13.2402 23 13.3674 23 13.5V14.5C23 14.6326 22.9473 14.7598 22.8536 14.8536C22.7598 14.9473 22.6326 15 22.5 15H22V18C22 19.0609 21.5786 20.0783 20.8284 20.8284C20.0783 21.5786 19.0609 22 18 22H6C4.93913 22 3.92172 21.5786 3.17157 20.8284C2.42143 20.0783 2 19.0609 2 18ZM20 15H4V18C4 18.5304 4.21071 19.0391 4.58579 19.4142C4.96086 19.7893 5.46957 20 6 20H18C18.5304 20 19.0391 19.7893 19.4142 19.4142C19.7893 19.0391 20 18.5304 20 18V15ZM10.586 13L9.12 11.536C8.86435 11.2806 8.53874 11.1067 8.1843 11.0362C7.82986 10.9658 7.46249 11.002 7.12861 11.1403C6.79474 11.2785 6.50933 11.5126 6.30845 11.813C6.10757 12.1134 6.00023 12.4666 6 12.828V13H10.586Z" fill="currentColor"/>
<path d="M19 4.172V3.5C19 3.36739 18.9473 3.24021 18.8536 3.14645C18.7598 3.05268 18.6326 3 18.5 3H17.5C17.3674 3 17.2402 3.05268 17.1464 3.14645C17.0527 3.24021 17 3.36739 17 3.5V4.172C17.0004 4.96724 17.3166 5.72977 17.879 6.292L18.707 7.122C18.8943 7.30925 18.9997 7.56315 19 7.828V8.5C19 8.63261 19.0527 8.75979 19.1464 8.85355C19.2402 8.94732 19.3674 9 19.5 9H20.5C20.6326 9 20.7598 8.94732 20.8536 8.85355C20.9473 8.75979 21 8.63261 21 8.5V7.828C20.9996 7.03276 20.6834 6.27023 20.121 5.708L19.293 4.878C19.1059 4.691 19.0006 4.4365 19 4.172ZM15 6.172V5.5C15 5.36739 14.9473 5.24021 14.8536 5.14645C14.7598 5.05268 14.6326 5 14.5 5H13.5C13.3674 5 13.2402 5.05268 13.1464 5.14645C13.0527 5.24021 13 5.36739 13 5.5V6.172C13.0004 6.96724 13.3166 7.72977 13.879 8.292L14.707 9.122C14.8943 9.30925 14.9997 9.56315 15 9.828V10.5C15 10.6326 15.0527 10.7598 15.1464 10.8536C15.2402 10.9473 15.3674 11 15.5 11H16.5C16.6326 11 16.7598 10.9473 16.8536 10.8536C16.9473 10.7598 17 10.6326 17 10.5V9.828C16.9996 9.03276 16.6834 8.27023 16.121 7.708L15.293 6.878C15.1059 6.691 15.0006 6.4365 15 6.172Z" fill="currentColor"/>
</svg>
