<svg width="22" height="24" viewBox="0 0 22 19" fill="currentColor" xmlns="http://www.w3.org/2000/svg">
<path fill-rule="evenodd" clip-rule="evenodd" d="M11.683 0.27007C11.4978 0.0968511 11.2536 0.000488281 11 0.000488281C10.7464 0.000488281 10.5022 0.0968511 10.317 0.27007C7.935 2.49407 6.527 5.32707 6.122 8.26307C4.54308 7.43102 2.78474 6.99744 1 7.00007C0.734784 7.00007 0.48043 7.10543 0.292893 7.29296C0.105357 7.4805 0 7.73485 0 8.00007C0 14.0751 4.925 19.0001 11 19.0001C17.075 19.0001 22 14.0751 22 8.00007C22 7.73485 21.8946 7.4805 21.7071 7.29296C21.5196 7.10543 21.2652 7.00007 21 7.00007C19.15 7.00007 17.407 7.45607 15.878 8.26307C15.473 5.32707 14.065 2.49507 11.683 0.27007ZM13.988 9.52407C13.868 6.99007 12.872 4.47207 11 2.42107C9.128 4.47107 8.132 6.98907 8.012 9.52407C9.28677 10.5794 10.308 11.9078 11 13.4111C11.692 11.9078 12.7132 10.5794 13.988 9.52407ZM9.938 16.9381C7.93195 16.6992 6.06454 15.7926 4.63603 14.364C3.20751 12.9355 2.30091 11.0681 2.062 9.06207C4.06805 9.30098 5.93546 10.2076 7.36397 11.6361C8.79249 13.0646 9.69909 14.932 9.938 16.9381ZM19.938 9.06207C19.6991 11.0681 18.7925 12.9355 17.364 14.364C15.9355 15.7926 14.068 16.6992 12.062 16.9381C12.3009 14.932 13.2075 13.0646 14.636 11.6361C16.0645 10.2076 17.932 9.30098 19.938 9.06207Z" fill="currentColor"/>
</svg>
