<svg width="32" height="24" viewBox="0 0 24 24" fill="currentColor" xmlns="http://www.w3.org/2000/svg">
<path fill-rule="evenodd" clip-rule="evenodd" d="M20 4.42806C20 3.01606 18.387 2.20906 17.257 3.05706C16.2459 3.81543 15.4252 4.79876 14.8599 5.9292C14.2946 7.05964 14.0002 8.30615 14 9.57006V14.0001C14 14.7957 14.3161 15.5588 14.8787 16.1214C15.4413 16.684 16.2044 17.0001 17 17.0001H18V20.5001C18 20.6327 18.0527 20.7598 18.1464 20.8536C18.2402 20.9474 18.3674 21.0001 18.5 21.0001H19.5C19.6326 21.0001 19.7598 20.9474 19.8536 20.8536C19.9473 20.7598 20 20.6327 20 20.5001V4.42806ZM18 5.03606C17.3699 5.61159 16.8667 6.31209 16.5223 7.0929C16.178 7.8737 16.0001 8.71769 16 9.57106V14.0001C16 14.2653 16.1054 14.5196 16.2929 14.7072C16.4804 14.8947 16.7348 15.0001 17 15.0001H18V5.03606Z" fill="currentColor"/>
<path d="M4.34732 3C4.22346 3.00012 4.10404 3.04622 4.01222 3.12936C3.9204 3.21249 3.86271 3.32675 3.85032 3.45L3.33532 8.602C3.2823 9.13168 3.33553 9.66662 3.49191 10.1755C3.64828 10.6843 3.90465 11.1568 4.24599 11.5653C4.58733 11.9738 5.00677 12.31 5.47972 12.5543C5.95268 12.7986 6.46965 12.9461 7.00032 12.988V20.5C7.00032 20.6326 7.053 20.7598 7.14677 20.8536C7.24054 20.9473 7.36771 21 7.50032 21H8.50032C8.63293 21 8.76011 20.9473 8.85388 20.8536C8.94764 20.7598 9.00032 20.6326 9.00032 20.5V12.988C9.531 12.9461 10.048 12.7986 10.5209 12.5543C10.9939 12.31 11.4133 11.9738 11.7547 11.5653C12.096 11.1568 12.3524 10.6843 12.5087 10.1755C12.6651 9.66662 12.7183 9.13168 12.6653 8.602L12.1503 3.45C12.1379 3.32658 12.0801 3.21218 11.9881 3.12902C11.896 3.04586 11.7764 2.99987 11.6523 3H10.6473C10.5775 3.00007 10.5084 3.01477 10.4446 3.04315C10.3808 3.07153 10.3237 3.11296 10.2768 3.16477C10.23 3.21659 10.1946 3.27764 10.1728 3.34399C10.151 3.41034 10.1433 3.48051 10.1503 3.55L10.6753 8.8C10.7033 9.07811 10.6726 9.359 10.5853 9.62453C10.4981 9.89007 10.3561 10.1344 10.1686 10.3417C9.98108 10.5489 9.7522 10.7146 9.49672 10.828C9.24125 10.9414 8.96484 11 8.68532 11H7.31532C7.03581 11 6.7594 10.9414 6.50392 10.828C6.24844 10.7146 6.01957 10.5489 5.83207 10.3417C5.64456 10.1344 5.50259 9.89007 5.41531 9.62453C5.32803 9.359 5.29737 9.07811 5.32532 8.8L5.85032 3.55C5.85731 3.48043 5.84964 3.41017 5.82779 3.34375C5.80594 3.27733 5.7704 3.21623 5.72347 3.1644C5.67654 3.11257 5.61926 3.07116 5.55533 3.04284C5.4914 3.01452 5.42224 2.99993 5.35232 3H4.34732Z" fill="currentColor"/>
<path d="M7 3.5C7 3.36739 7.05268 3.24021 7.14645 3.14645C7.24021 3.05268 7.36739 3 7.5 3H8.5C8.63261 3 8.75979 3.05268 8.85355 3.14645C8.94732 3.24021 9 3.36739 9 3.5V7.5C9 7.63261 8.94732 7.75979 8.85355 7.85355C8.75979 7.94732 8.63261 8 8.5 8H7.5C7.36739 8 7.24021 7.94732 7.14645 7.85355C7.05268 7.75979 7 7.63261 7 7.5V3.5Z" fill="currentColor"/>
</svg>
