<svg width="24" height="24" viewBox="0 0 20 21" fill="currentColor" xmlns="http://www.w3.org/2000/svg">
<path fill-rule="evenodd" clip-rule="evenodd" d="M3 7C3 5.14348 3.7375 3.36301 5.05025 2.05025C6.36301 0.737498 8.14348 0 10 0C11.8565 0 13.637 0.737498 14.9497 2.05025C16.2625 3.36301 17 5.14348 17 7V13H19.5C19.6326 13 19.7598 13.0527 19.8536 13.1464C19.9473 13.2402 20 13.3674 20 13.5V14.5C20 14.6326 19.9473 14.7598 19.8536 14.8536C19.7598 14.9473 19.6326 15 19.5 15H19V20C19 20.2652 18.8946 20.5196 18.7071 20.7071C18.5196 20.8946 18.2652 21 18 21H2C1.73478 21 1.48043 20.8946 1.29289 20.7071C1.10536 20.5196 1 20.2652 1 20V15H0.5C0.367392 15 0.240215 14.9473 0.146447 14.8536C0.0526785 14.7598 0 14.6326 0 14.5V13.5C0 13.3674 0.0526785 13.2402 0.146447 13.1464C0.240215 13.0527 0.367392 13 0.5 13H3V7ZM5 13H9V9H5V13ZM11 13H15V9H11V13ZM3 15V19H5V15H3ZM7 15V19H9V15H7ZM11 15V19H13V15H11ZM15 15V19H17V15H15ZM9 7H5C5.00014 5.84745 5.3983 4.7303 6.12714 3.83746C6.85599 2.94463 7.87081 2.33088 9 2.1V7ZM11 7V2.1C13.282 2.563 15 4.581 15 7H11Z" fill="currentColor"/>
</svg>
