<svg width="32" height="32" viewBox="0 0 24 24" fill="currentColor" xmlns="http://www.w3.org/2000/svg">
<path fill-rule="evenodd" clip-rule="evenodd" d="M6 9C6 8.73478 6.10536 8.48043 6.29289 8.29289C6.48043 8.10536 6.73478 8 7 8H15C15.2652 8 15.5196 8.10536 15.7071 8.29289C15.8946 8.48043 16 8.73478 16 9V15C16 15.2652 15.8946 15.5196 15.7071 15.7071C15.5196 15.8946 15.2652 16 15 16H7C6.73478 16 6.48043 15.8946 6.29289 15.7071C6.10536 15.5196 6 15.2652 6 15V9ZM13.5 14.5C13.6326 14.5 13.7598 14.4473 13.8536 14.3536C13.9473 14.2598 14 14.1326 14 14V13.5C14 13.3674 13.9473 13.2402 13.8536 13.1464C13.7598 13.0527 13.6326 13 13.5 13H8.5C8.36739 13 8.24021 13.0527 8.14645 13.1464C8.05268 13.2402 8 13.3674 8 13.5V14C8 14.1326 8.05268 14.2598 8.14645 14.3536C8.24021 14.4473 8.36739 14.5 8.5 14.5H13.5Z" fill="currentColor"/>
<path d="M18 13C18.2652 13 18.5196 12.8946 18.7071 12.7071C18.8946 12.5196 19 12.2652 19 12C19 11.7348 18.8946 11.4804 18.7071 11.2929C18.5196 11.1054 18.2652 11 18 11C17.7348 11 17.4804 11.1054 17.2929 11.2929C17.1054 11.4804 17 11.7348 17 12C17 12.2652 17.1054 12.5196 17.2929 12.7071C17.4804 12.8946 17.7348 13 18 13ZM19 9C19 9.26522 18.8946 9.51957 18.7071 9.70711C18.5196 9.89464 18.2652 10 18 10C17.7348 10 17.4804 9.89464 17.2929 9.70711C17.1054 9.51957 17 9.26522 17 9C17 8.73478 17.1054 8.48043 17.2929 8.29289C17.4804 8.10536 17.7348 8 18 8C18.2652 8 18.5196 8.10536 18.7071 8.29289C18.8946 8.48043 19 8.73478 19 9Z" fill="currentColor"/>
<path fill-rule="evenodd" clip-rule="evenodd" d="M2 7C2 6.20435 2.31607 5.44129 2.87868 4.87868C3.44129 4.31607 4.20435 4 5 4H19C19.7956 4 20.5587 4.31607 21.1213 4.87868C21.6839 5.44129 22 6.20435 22 7V17C22 17.7956 21.6839 18.5587 21.1213 19.1213C20.5587 19.6839 19.7956 20 19 20H5C4.20435 20 3.44129 19.6839 2.87868 19.1213C2.31607 18.5587 2 17.7956 2 17V7ZM5 6C4.73478 6 4.48043 6.10536 4.29289 6.29289C4.10536 6.48043 4 6.73478 4 7V17C4 17.2652 4.10536 17.5196 4.29289 17.7071C4.48043 17.8946 4.73478 18 5 18H19C19.2652 18 19.5196 17.8946 19.7071 17.7071C19.8946 17.5196 20 17.2652 20 17V7C20 6.73478 19.8946 6.48043 19.7071 6.29289C19.5196 6.10536 19.2652 6 19 6H5Z" fill="currentColor"/>
</svg>
