<svg width="31" height="32" viewBox="0 0 31 32" fill="none" xmlns="http://www.w3.org/2000/svg">
<path d="M8.37536 13.5198C8.54585 13.5198 8.70937 13.5876 8.82993 13.7081C8.95049 13.8287 9.01822 13.9922 9.01822 14.1627V15.4484C9.01822 15.6189 8.95049 15.7824 8.82993 15.903C8.70937 16.0235 8.54585 16.0913 8.37536 16.0913H7.08964C6.91914 16.0913 6.75563 16.0235 6.63507 15.903C6.51451 15.7824 6.44678 15.6189 6.44678 15.4484V14.1627C6.44678 13.9922 6.51451 13.8287 6.63507 13.7081C6.75563 13.5876 6.91914 13.5198 7.08964 13.5198H8.37536ZM9.01822 9.01981C9.01822 8.84932 8.95049 8.6858 8.82993 8.56524C8.70937 8.44468 8.54585 8.37695 8.37536 8.37695H7.08964C6.91914 8.37695 6.75563 8.44468 6.63507 8.56524C6.51451 8.6858 6.44678 8.84932 6.44678 9.01981V10.3055C6.44678 10.476 6.51451 10.6395 6.63507 10.7601C6.75563 10.8807 6.91914 10.9484 7.08964 10.9484H8.37536C8.54585 10.9484 8.70937 10.8807 8.82993 10.7601C8.95049 10.6395 9.01822 10.476 9.01822 10.3055V9.01981ZM13.5182 13.5198C13.6887 13.5198 13.8523 13.5876 13.9728 13.7081C14.0934 13.8287 14.1611 13.9922 14.1611 14.1627V15.4484C14.1611 15.6189 14.0934 15.7824 13.9728 15.903C13.8523 16.0235 13.6887 16.0913 13.5182 16.0913H12.2325C12.062 16.0913 11.8985 16.0235 11.7779 15.903C11.6574 15.7824 11.5897 15.6189 11.5897 15.4484V14.1627C11.5897 13.9922 11.6574 13.8287 11.7779 13.7081C11.8985 13.5876 12.062 13.5198 12.2325 13.5198H13.5182ZM14.1611 9.01981C14.1611 8.84932 14.0934 8.6858 13.9728 8.56524C13.8523 8.44468 13.6887 8.37695 13.5182 8.37695H12.2325C12.062 8.37695 11.8985 8.44468 11.7779 8.56524C11.6574 8.6858 11.5897 8.84932 11.5897 9.01981V10.3055C11.5897 10.476 11.6574 10.6395 11.7779 10.7601C11.8985 10.8807 12.062 10.9484 12.2325 10.9484H13.5182C13.6887 10.9484 13.8523 10.8807 13.9728 10.7601C14.0934 10.6395 14.1611 10.476 14.1611 10.3055V9.01981Z" fill="#191E3B"/>
<path fill-rule="evenodd" clip-rule="evenodd" d="M1.30371 7.09154C1.30371 6.06855 1.71009 5.08747 2.43345 4.36411C3.15681 3.64075 4.13789 3.23438 5.16087 3.23438H15.4466C16.4696 3.23438 17.4507 3.64075 18.1741 4.36411C18.8974 5.08747 19.3038 6.06855 19.3038 7.09154V25.0916H26.3753C26.5458 25.0916 26.7093 25.0239 26.8298 24.9033C26.9504 24.7828 27.0181 24.6193 27.0181 24.4488V12.2344C27.0181 11.8934 26.8827 11.5664 26.6415 11.3253C26.4004 11.0842 26.0734 10.9487 25.7324 10.9487H22.5181C22.3476 10.9487 22.1841 10.881 22.0635 10.7604C21.943 10.6398 21.8752 10.4763 21.8752 10.3058V9.02012C21.8752 8.84962 21.943 8.68611 22.0635 8.56555C22.1841 8.44499 22.3476 8.37726 22.5181 8.37726H25.7324C26.7554 8.37726 27.7365 8.78363 28.4598 9.50699C29.1832 10.2304 29.5896 11.2114 29.5896 12.2344V26.3773C29.5896 26.7183 29.4541 27.0454 29.213 27.2865C28.9719 27.5276 28.6448 27.6631 28.3038 27.6631H2.58943C2.24844 27.6631 1.92141 27.5276 1.68029 27.2865C1.43917 27.0454 1.30371 26.7183 1.30371 26.3773V7.09154ZM5.16087 5.80582C4.81988 5.80582 4.49285 5.94128 4.25173 6.18239C4.01061 6.42351 3.87515 6.75054 3.87515 7.09154V25.0916H6.44659V19.9487C6.44659 19.6077 6.58205 19.2807 6.82317 19.0396C7.06429 18.7985 7.39132 18.663 7.73231 18.663H12.8752C13.2162 18.663 13.5432 18.7985 13.7843 19.0396C14.0255 19.2807 14.1609 19.6077 14.1609 19.9487V25.0916H16.7324V7.09154C16.7324 6.75054 16.5969 6.42351 16.3558 6.18239C16.1147 5.94128 15.7876 5.80582 15.4466 5.80582H5.16087ZM11.5895 21.2345V25.0916H9.01803V21.2345H11.5895Z" fill="#191E3B"/>
<path d="M24.4469 14.1624C24.4469 13.9919 24.3792 13.8284 24.2586 13.7078C24.1381 13.5873 23.9746 13.5195 23.8041 13.5195H22.5183C22.3479 13.5195 22.1843 13.5873 22.0638 13.7078C21.9432 13.8284 21.8755 13.9919 21.8755 14.1624V15.4481C21.8755 15.6186 21.9432 15.7821 22.0638 15.9027C22.1843 16.0232 22.3479 16.091 22.5183 16.091H23.8041C23.9746 16.091 24.1381 16.0232 24.2586 15.9027C24.3792 15.7821 24.4469 15.6186 24.4469 15.4481V14.1624ZM23.8041 18.6624C23.9746 18.6624 24.1381 18.7301 24.2586 18.8507C24.3792 18.9713 24.4469 19.1348 24.4469 19.3053V20.591C24.4469 20.7615 24.3792 20.925 24.2586 21.0456C24.1381 21.1661 23.9746 21.2339 23.8041 21.2339H22.5183C22.3479 21.2339 22.1843 21.1661 22.0638 21.0456C21.9432 20.925 21.8755 20.7615 21.8755 20.591V19.3053C21.8755 19.1348 21.9432 18.9713 22.0638 18.8507C22.1843 18.7301 22.3479 18.6624 22.5183 18.6624H23.8041Z" fill="#191E3B"/>
</svg>
