<svg width="24" height="24" viewBox="0 0 24 18" fill="currentColor" xmlns="http://www.w3.org/2000/svg">
<path fill-rule="evenodd" clip-rule="evenodd" d="M12.5 3C12.5 2.20435 12.8161 1.44129 13.3787 0.87868C13.9413 0.316071 14.7044 0 15.5 0C16.2956 0 17.0587 0.316071 17.6213 0.87868C18.1839 1.44129 18.5 2.20435 18.5 3C18.5 3.79565 18.1839 4.55871 17.6213 5.12132C17.0587 5.68393 16.2956 6 15.5 6C14.7044 6 13.9413 5.68393 13.3787 5.12132C12.8161 4.55871 12.5 3.79565 12.5 3ZM15.5 2C15.2348 2 14.9804 2.10536 14.7929 2.29289C14.6054 2.48043 14.5 2.73478 14.5 3C14.5 3.26522 14.6054 3.51957 14.7929 3.70711C14.9804 3.89464 15.2348 4 15.5 4C15.7652 4 16.0196 3.89464 16.2071 3.70711C16.3946 3.51957 16.5 3.26522 16.5 3C16.5 2.73478 16.3946 2.48043 16.2071 2.29289C16.0196 2.10536 15.7652 2 15.5 2ZM15.172 18H8.829C8.07184 18.0001 7.33166 17.7756 6.70207 17.355C6.07249 16.9344 5.58178 16.3365 5.29202 15.637C5.00226 14.9374 4.92645 14.1677 5.07418 13.4251C5.22192 12.6825 5.58657 12.0004 6.122 11.465L9.172 8.415C9.54344 8.04354 9.9844 7.74889 10.4697 7.54786C10.955 7.34682 11.4752 7.24335 12.0005 7.24335C12.5258 7.24335 13.046 7.34682 13.5313 7.54786C14.0166 7.74889 14.4576 8.04354 14.829 8.415L17.879 11.465C18.4144 12.0004 18.7791 12.6825 18.9268 13.4251C19.0746 14.1677 18.9987 14.9374 18.709 15.637C18.4192 16.3365 17.9285 16.9344 17.2989 17.355C16.6693 17.7756 15.9292 18.0001 15.172 18ZM8.829 16H15.172C15.5337 16.0002 15.8872 15.893 16.188 15.6922C16.4888 15.4913 16.7232 15.2058 16.8616 14.8717C17 14.5375 17.0363 14.1699 16.9656 13.8151C16.895 13.4604 16.7208 13.1347 16.465 12.879L13.415 9.829C13.2293 9.6432 13.0088 9.49581 12.7661 9.39525C12.5233 9.29469 12.2632 9.24293 12.0005 9.24293C11.7378 9.24293 11.4777 9.29469 11.2349 9.39525C10.9922 9.49581 10.7717 9.6432 10.586 9.829L7.536 12.879C7.28018 13.1347 7.10595 13.4604 7.03535 13.8151C6.96475 14.1699 7.00095 14.5375 7.13938 14.8717C7.2778 15.2058 7.51223 15.4913 7.81299 15.6922C8.11375 15.893 8.46734 16.0002 8.829 16ZM20.5 5C20.106 5 19.7159 5.0776 19.3519 5.22836C18.988 5.37913 18.6573 5.6001 18.3787 5.87868C18.1001 6.15726 17.8791 6.48797 17.7284 6.85195C17.5776 7.21593 17.5 7.60603 17.5 8C17.5 8.39397 17.5776 8.78407 17.7284 9.14805C17.8791 9.51203 18.1001 9.84274 18.3787 10.1213C18.6573 10.3999 18.988 10.6209 19.3519 10.7716C19.7159 10.9224 20.106 11 20.5 11C21.2956 11 22.0587 10.6839 22.6213 10.1213C23.1839 9.55871 23.5 8.79565 23.5 8C23.5 7.20435 23.1839 6.44129 22.6213 5.87868C22.0587 5.31607 21.2956 5 20.5 5ZM19.5 8C19.5 7.73478 19.6054 7.48043 19.7929 7.29289C19.9804 7.10536 20.2348 7 20.5 7C20.7652 7 21.0196 7.10536 21.2071 7.29289C21.3946 7.48043 21.5 7.73478 21.5 8C21.5 8.26522 21.3946 8.51957 21.2071 8.70711C21.0196 8.89464 20.7652 9 20.5 9C20.2348 9 19.9804 8.89464 19.7929 8.70711C19.6054 8.51957 19.5 8.26522 19.5 8ZM0.5 8C0.5 7.60603 0.577597 7.21593 0.728361 6.85195C0.879125 6.48797 1.1001 6.15726 1.37868 5.87868C1.65726 5.6001 1.98797 5.37913 2.35195 5.22836C2.71593 5.0776 3.10603 5 3.5 5C3.89397 5 4.28407 5.0776 4.64805 5.22836C5.01203 5.37913 5.34274 5.6001 5.62132 5.87868C5.8999 6.15726 6.12087 6.48797 6.27164 6.85195C6.4224 7.21593 6.5 7.60603 6.5 8C6.5 8.79565 6.18393 9.55871 5.62132 10.1213C5.05871 10.6839 4.29565 11 3.5 11C2.70435 11 1.94129 10.6839 1.37868 10.1213C0.81607 9.55871 0.5 8.79565 0.5 8ZM3.5 7C3.23478 7 2.98043 7.10536 2.79289 7.29289C2.60536 7.48043 2.5 7.73478 2.5 8C2.5 8.26522 2.60536 8.51957 2.79289 8.70711C2.98043 8.89464 3.23478 9 3.5 9C3.76522 9 4.01957 8.89464 4.20711 8.70711C4.39464 8.51957 4.5 8.26522 4.5 8C4.5 7.73478 4.39464 7.48043 4.20711 7.29289C4.01957 7.10536 3.76522 7 3.5 7ZM8.5 0C7.70435 0 6.94129 0.316071 6.37868 0.87868C5.81607 1.44129 5.5 2.20435 5.5 3C5.5 3.79565 5.81607 4.55871 6.37868 5.12132C6.94129 5.68393 7.70435 6 8.5 6C9.29565 6 10.0587 5.68393 10.6213 5.12132C11.1839 4.55871 11.5 3.79565 11.5 3C11.5 2.20435 11.1839 1.44129 10.6213 0.87868C10.0587 0.316071 9.29565 0 8.5 0ZM7.5 3C7.5 2.73478 7.60536 2.48043 7.79289 2.29289C7.98043 2.10536 8.23478 2 8.5 2C8.76522 2 9.01957 2.10536 9.20711 2.29289C9.39464 2.48043 9.5 2.73478 9.5 3C9.5 3.26522 9.39464 3.51957 9.20711 3.70711C9.01957 3.89464 8.76522 4 8.5 4C8.23478 4 7.98043 3.89464 7.79289 3.70711C7.60536 3.51957 7.5 3.26522 7.5 3Z" fill="currentColor"/>
</svg>
