<svg width="32" height="32" viewBox="0 0 24 24" fill="currentColor" xmlns="http://www.w3.org/2000/svg">
<path d="M2 5C2 4.20435 2.31607 3.44129 2.87868 2.87868C3.44129 2.31607 4.20435 2 5 2H14C14.7094 1.99985 15.3959 2.25111 15.9377 2.70917C16.4794 3.16722 16.8412 3.80243 16.959 4.502C17.004 4.774 16.776 5 16.5 5H15.5C15.224 5 15.01 4.763 14.878 4.52C14.7918 4.36248 14.6648 4.23108 14.5103 4.13958C14.3558 4.04808 14.1796 3.99987 14 4H5C4.73478 4 4.48043 4.10536 4.29289 4.29289C4.10536 4.48043 4 4.73478 4 5V14C3.99987 14.1796 4.04808 14.3558 4.13958 14.5103C4.23108 14.6648 4.36248 14.7918 4.52 14.878C4.763 15.01 5 15.224 5 15.5V16.5C5 16.776 4.774 17.004 4.502 16.959C3.80243 16.8412 3.16722 16.4794 2.70917 15.9377C2.25111 15.3959 1.99985 14.7094 2 14V5ZM13.5 16.75C13.5 17.0815 13.3683 17.3995 13.1339 17.6339C12.8995 17.8683 12.5815 18 12.25 18C11.9185 18 11.6005 17.8683 11.3661 17.6339C11.1317 17.3995 11 17.0815 11 16.75C11 16.4185 11.1317 16.1005 11.3661 15.8661C11.6005 15.6317 11.9185 15.5 12.25 15.5C12.5815 15.5 12.8995 15.6317 13.1339 15.8661C13.3683 16.1005 13.5 16.4185 13.5 16.75ZM16.75 18C17.0815 18 17.3995 17.8683 17.6339 17.6339C17.8683 17.3995 18 17.0815 18 16.75C18 16.4185 17.8683 16.1005 17.6339 15.8661C17.3995 15.6317 17.0815 15.5 16.75 15.5C16.4185 15.5 16.1005 15.6317 15.8661 15.8661C15.6317 16.1005 15.5 16.4185 15.5 16.75C15.5 17.0815 15.6317 17.3995 15.8661 17.6339C16.1005 17.8683 16.4185 18 16.75 18ZM18 12.25C18 12.5815 17.8683 12.8995 17.6339 13.1339C17.3995 13.3683 17.0815 13.5 16.75 13.5C16.4185 13.5 16.1005 13.3683 15.8661 13.1339C15.6317 12.8995 15.5 12.5815 15.5 12.25C15.5 11.9185 15.6317 11.6005 15.8661 11.3661C16.1005 11.1317 16.4185 11 16.75 11C17.0815 11 17.3995 11.1317 17.6339 11.3661C17.8683 11.6005 18 11.9185 18 12.25ZM12.25 13.5C12.5815 13.5 12.8995 13.3683 13.1339 13.1339C13.3683 12.8995 13.5 12.5815 13.5 12.25C13.5 11.9185 13.3683 11.6005 13.1339 11.3661C12.8995 11.1317 12.5815 11 12.25 11C11.9185 11 11.6005 11.1317 11.3661 11.3661C11.1317 11.6005 11 11.9185 11 12.25C11 12.5815 11.1317 12.8995 11.3661 13.1339C11.6005 13.3683 11.9185 13.5 12.25 13.5Z" fill="currentColor"/>
<path fill-rule="evenodd" clip-rule="evenodd" d="M7 10C7 9.20435 7.31607 8.44129 7.87868 7.87868C8.44129 7.31607 9.20435 7 10 7H19C19.7956 7 20.5587 7.31607 21.1213 7.87868C21.6839 8.44129 22 9.20435 22 10V19C22 19.7956 21.6839 20.5587 21.1213 21.1213C20.5587 21.6839 19.7956 22 19 22H10C9.20435 22 8.44129 21.6839 7.87868 21.1213C7.31607 20.5587 7 19.7956 7 19V10ZM10 9C9.73478 9 9.48043 9.10536 9.29289 9.29289C9.10536 9.48043 9 9.73478 9 10V19C9 19.2652 9.10536 19.5196 9.29289 19.7071C9.48043 19.8946 9.73478 20 10 20H19C19.2652 20 19.5196 19.8946 19.7071 19.7071C19.8946 19.5196 20 19.2652 20 19V10C20 9.73478 19.8946 9.48043 19.7071 9.29289C19.5196 9.10536 19.2652 9 19 9H10Z" fill="currentColor"/>
</svg>
