<svg width="22" height="24" viewBox="0 0 22 18" fill="currentColor" xmlns="http://www.w3.org/2000/svg">
<path fill-rule="evenodd" clip-rule="evenodd" d="M1 0C0.734784 0 0.48043 0.105357 0.292893 0.292893C0.105357 0.48043 0 0.734784 0 1V13.333C0 14.106 0.37 14.8 0.946 15.28C1.256 15.539 1.616 15.729 2 15.849V17.5C2 17.6326 2.05268 17.7598 2.14645 17.8536C2.24021 17.9473 2.36739 18 2.5 18H3.5C3.63261 18 3.75979 17.9473 3.85355 17.8536C3.94732 17.7598 4 17.6326 4 17.5V16H18V17.5C18 17.6326 18.0527 17.7598 18.1464 17.8536C18.2402 17.9473 18.3674 18 18.5 18H19.5C19.6326 18 19.7598 17.9473 19.8536 17.8536C19.9473 17.7598 20 17.6326 20 17.5V15.849C20.384 15.729 20.744 15.539 21.054 15.28C21.631 14.8 22 14.105 22 13.333V1C22 0.734784 21.8946 0.48043 21.7071 0.292893C21.5196 0.105357 21.2652 0 21 0H1ZM19 14C19.318 14 19.595 13.893 19.774 13.744C19.948 13.599 20 13.445 20 13.334V11H2V13.333C2 13.445 2.052 13.599 2.226 13.743C2.406 13.893 2.682 14 3 14H19ZM2 9H5V2H2V9ZM10 9H7V2H10V9ZM15 9H12V2H15V9ZM20 9H17V2H20V9Z" fill="currentColor"/>
</svg>
