<svg width="22" height="24" viewBox="0 0 24 24" fill="currentColor" xmlns="http://www.w3.org/2000/svg">
<path fill-rule="evenodd" clip-rule="evenodd" d="M15 4C15 4.79565 14.6839 5.55871 14.1213 6.12132C13.5587 6.68393 12.7956 7 12 7C11.2044 7 10.4413 6.68393 9.87868 6.12132C9.31607 5.55871 9 4.79565 9 4C9 3.20435 9.31607 2.44129 9.87868 1.87868C10.4413 1.31607 11.2044 1 12 1C12.7956 1 13.5587 1.31607 14.1213 1.87868C14.6839 2.44129 15 3.20435 15 4ZM13 4C13 4.26522 12.8946 4.51957 12.7071 4.70711C12.5196 4.89464 12.2652 5 12 5C11.7348 5 11.4804 4.89464 11.2929 4.70711C11.1054 4.51957 11 4.26522 11 4C11 3.73478 11.1054 3.48043 11.2929 3.29289C11.4804 3.10536 11.7348 3 12 3C12.2652 3 12.5196 3.10536 12.7071 3.29289C12.8946 3.48043 13 3.73478 13 4Z" fill="#191E3B"/>
<path d="M5 15.5C4.854 15.5 4.71 15.54 4.586 15.615L3.372 16.343C2.80054 16.686 2.16153 16.9009 1.499 16.973C1.225 17.003 1 16.776 1 16.5V15.5C1 15.224 1.226 15.005 1.497 14.952C1.794 14.895 2.081 14.785 2.343 14.628L3.557 13.9C3.9929 13.6385 4.49167 13.5004 5 13.5004C5.50833 13.5004 6.0071 13.6385 6.443 13.9L8.086 14.885C8.21111 14.9599 8.35419 14.9995 8.5 14.9995C8.64581 14.9995 8.78889 14.9599 8.914 14.885L10.557 13.9C10.9929 13.6385 11.4917 13.5004 12 13.5004C12.5083 13.5004 13.0071 13.6385 13.443 13.9L15.086 14.885C15.2111 14.9599 15.3542 14.9995 15.5 14.9995C15.6458 14.9995 15.7889 14.9599 15.914 14.885L17.557 13.9C17.9929 13.6385 18.4917 13.5004 19 13.5004C19.5083 13.5004 20.0071 13.6385 20.443 13.9L21.657 14.628C21.919 14.785 22.206 14.895 22.503 14.952C22.774 15.005 23 15.224 23 15.5V16.5C23 16.776 22.776 17.003 22.501 16.973C21.8385 16.9009 21.1995 16.686 20.628 16.343L19.414 15.615C19.2889 15.5402 19.1458 15.5006 19 15.5006C18.8542 15.5006 18.7111 15.5402 18.586 15.615L16.943 16.6C16.5071 16.8616 16.0083 16.9997 15.5 16.9997C14.9917 16.9997 14.4929 16.8616 14.057 16.6L12.414 15.615C12.2889 15.5402 12.1458 15.5006 12 15.5006C11.8542 15.5006 11.7111 15.5402 11.586 15.615L9.943 16.6C9.5071 16.8616 9.00833 16.9997 8.5 16.9997C7.99167 16.9997 7.4929 16.8616 7.057 16.6L5.414 15.615C5.28895 15.54 5.14586 15.5002 5 15.5ZM5 20C4.854 20 4.71 20.04 4.586 20.115L3.372 20.843C2.80054 21.186 2.16153 21.4009 1.499 21.473C1.225 21.503 1 21.276 1 21V20C1 19.724 1.226 19.505 1.497 19.452C1.794 19.395 2.081 19.285 2.343 19.128L3.557 18.4C3.9929 18.1385 4.49167 18.0004 5 18.0004C5.50833 18.0004 6.0071 18.1385 6.443 18.4L8.086 19.385C8.21111 19.4599 8.35419 19.4995 8.5 19.4995C8.64581 19.4995 8.78889 19.4599 8.914 19.385L10.557 18.4C10.9929 18.1385 11.4917 18.0004 12 18.0004C12.5083 18.0004 13.0071 18.1385 13.443 18.4L15.086 19.385C15.2111 19.4599 15.3542 19.4995 15.5 19.4995C15.6458 19.4995 15.7889 19.4599 15.914 19.385L17.557 18.4C17.9929 18.1385 18.4917 18.0004 19 18.0004C19.5083 18.0004 20.0071 18.1385 20.443 18.4L21.657 19.128C21.919 19.285 22.206 19.395 22.503 19.452C22.774 19.505 23 19.724 23 20V21C23 21.276 22.776 21.503 22.501 21.473C21.8385 21.4009 21.1995 21.186 20.628 20.843L19.414 20.115C19.2889 20.0402 19.1458 20.0006 19 20.0006C18.8542 20.0006 18.7111 20.0402 18.586 20.115L16.943 21.1C16.5071 21.3616 16.0083 21.4997 15.5 21.4997C14.9917 21.4997 14.4929 21.3616 14.057 21.1L12.414 20.115C12.2889 20.0402 12.1458 20.0006 12 20.0006C11.8542 20.0006 11.7111 20.0402 11.586 20.115L9.943 21.1C9.5071 21.3616 9.00833 21.4997 8.5 21.4997C7.99167 21.4997 7.4929 21.3616 7.057 21.1L5.414 20.115C5.28895 20.04 5.14586 20.0002 5 20ZM16.5 9.62205C18.3541 9.30794 20.1706 8.80189 21.92 8.11205C21.981 8.0878 22.0365 8.05163 22.0833 8.00564C22.1302 7.95965 22.1673 7.90478 22.1927 7.84424C22.218 7.78369 22.231 7.7187 22.2309 7.65308C22.2308 7.58745 22.2175 7.5225 22.192 7.46205L21.808 6.53805C21.7562 6.41589 21.6587 6.31883 21.5363 6.26762C21.4139 6.21642 21.2763 6.21514 21.153 6.26405C15.2706 8.57916 8.72941 8.57916 2.847 6.26405C2.72366 6.21514 2.58609 6.21642 2.46369 6.26762C2.34128 6.31883 2.24377 6.41589 2.192 6.53805L1.808 7.46205C1.78246 7.5225 1.76924 7.58745 1.76913 7.65308C1.76902 7.7187 1.78201 7.78369 1.80734 7.84424C1.83268 7.90478 1.86984 7.95965 1.91666 8.00564C1.96348 8.05163 2.01901 8.0878 2.08 8.11205C3.82964 8.80131 5.64601 9.30734 7.5 9.62205V12.5C7.5 12.6327 7.55268 12.7598 7.64645 12.8536C7.74021 12.9474 7.86739 13 8 13H9C9.13261 13 9.25979 12.9474 9.35355 12.8536C9.44732 12.7598 9.5 12.6327 9.5 12.5V9.88405C11.1631 10.039 12.8369 10.039 14.5 9.88405V12.5C14.5 12.6327 14.5527 12.7598 14.6464 12.8536C14.7402 12.9474 14.8674 13 15 13H16C16.1326 13 16.2598 12.9474 16.3536 12.8536C16.4473 12.7598 16.5 12.6327 16.5 12.5V9.62205Z" fill="currentColor"/>
</svg>
