<svg width="16" height="19" viewBox="0 0 16 19" fill="none" xmlns="http://www.w3.org/2000/svg">
<path d="M9.69019 0.75V2H14.28L15.1199 15.3398H12.9324L15.1199 18.25H12.6199L11.9949 17.4102H4.06519L3.44019 18.25H0.940186L3.12769 15.3398H0.940186L1.78003 2H6.36987V0.75H9.69019ZM10.4324 15.3398H5.62769L5.00269 16.1602H11.0574L10.4324 15.3398ZM12.1902 9.91016C11.8516 9.91016 11.5587 10.0339 11.3113 10.2812C11.0639 10.5286 10.9402 10.8249 10.9402 11.1699C10.9402 11.515 11.0639 11.8079 11.3113 12.0488C11.5587 12.2897 11.8549 12.4102 12.2 12.4102C12.545 12.4102 12.838 12.2897 13.0789 12.0488C13.3197 11.8079 13.4402 11.515 13.4402 11.1699C13.4402 10.8249 13.3197 10.5286 13.0789 10.2812C12.838 10.0339 12.5417 9.91016 12.1902 9.91016ZM3.86987 9.91016C3.51831 9.91016 3.22209 10.0339 2.9812 10.2812C2.74032 10.5286 2.61987 10.8249 2.61987 11.1699C2.61987 11.515 2.74032 11.8079 2.9812 12.0488C3.22209 12.2897 3.51506 12.4102 3.86011 12.4102C4.20516 12.4102 4.50138 12.2897 4.74878 12.0488C4.99618 11.8079 5.11987 11.515 5.11987 11.1699C5.11987 10.8249 4.99618 10.5286 4.74878 10.2812C4.50138 10.0339 4.20841 9.91016 3.86987 9.91016ZM13.03 4.5H3.03003V7.83984H13.03V4.5Z" fill="white"/>
</svg>
