<svg width="27" height="29" viewBox="0 0 27 29" fill="none" xmlns="http://www.w3.org/2000/svg">
<path d="M17.2009 6.75917C16.4752 4.76539 14.9873 3.14155 13.0643 2.24487C11.1414 1.34819 8.94099 1.25211 6.94721 1.97779C4.95343 2.70346 3.32959 4.19144 2.43291 6.11438C1.53623 8.03733 1.44015 10.2377 2.16583 12.2315C5.35802 21.002 2.5113 24.8759 2.5113 24.8759L25.0639 16.6674C25.0639 16.6674 20.3931 15.5296 17.2009 6.75917Z" fill="#FF5F0A"/>
<path d="M17.7793 24.9944C17.6972 25.4543 17.4958 25.8846 17.1951 26.2422C16.8944 26.5997 16.5051 26.872 16.0661 27.0318C15.6271 27.1916 15.1539 27.2333 14.6937 27.1526C14.2335 27.0719 13.8027 26.8718 13.4442 26.5723" fill="#FF5F0A"/>
<path d="M17.7793 24.9944C17.6972 25.4543 17.4958 25.8846 17.1951 26.2422C16.8944 26.5997 16.5051 26.872 16.0661 27.0318C15.6271 27.1916 15.1539 27.2333 14.6937 27.1526C14.2335 27.0719 13.8027 26.8718 13.4442 26.5723M17.2009 6.75917C16.4752 4.76539 14.9873 3.14155 13.0643 2.24487C11.1414 1.34819 8.94099 1.25211 6.94721 1.97779C4.95343 2.70346 3.32959 4.19144 2.43291 6.11438C1.53623 8.03733 1.44015 10.2377 2.16583 12.2315C5.35802 21.002 2.5113 24.8759 2.5113 24.8759L25.0639 16.6674C25.0639 16.6674 20.3931 15.5296 17.2009 6.75917Z" stroke="#E63A24" stroke-width="3" stroke-linecap="round" stroke-linejoin="round"/>
</svg>
