<svg width="19" height="20" viewBox="0 0 19 20" fill="none" xmlns="http://www.w3.org/2000/svg">
<path d="M13.1622 5.20312V19.2461H3.08411V7.83984L13.1622 5.20312ZM14.92 8.26953L18.8654 9.57812V19.2461H14.92V8.26953ZM8.33801 13.9727H5.70129V16.6094H8.33801V13.9727ZM8.33801 9.57812H5.70129V12.2148H8.33801V9.57812ZM6.73645 3.11328L4.52942 0.964844L5.60364 0.378906L9.7052 2.3125L13.6115 1.25781C13.8068 1.20573 14.0086 1.20573 14.2169 1.25781C14.4253 1.3099 14.6043 1.41081 14.754 1.56055C14.9038 1.71029 15.0047 1.88607 15.0568 2.08789C15.1088 2.28971 15.1088 2.49154 15.0568 2.69336C15.0047 2.89518 14.9005 3.07096 14.7443 3.2207C14.588 3.37044 14.4122 3.47135 14.2169 3.52344L4.35364 6.16016C4.13228 6.22526 3.90767 6.21875 3.67981 6.14062C3.45195 6.0625 3.2664 5.93229 3.12317 5.75V5.76953L0.877075 3.46484L1.8927 2.58594L4.0802 3.81641L6.73645 3.11328Z" fill="white"/>
</svg>
