<svg width="12" height="13" viewBox="0 0 12 13" fill="none" xmlns="http://www.w3.org/2000/svg">
<path d="M9.78711 5.91211V7.96289H10.375V12.625H8.03711V7.96289H8.625V5.91211C8.23307 5.83008 7.88216 5.66602 7.57227 5.41992C7.26237 5.17383 7.02083 4.86621 6.84766 4.49707C6.67448 4.12793 6.58789 3.72461 6.58789 3.28711C6.58789 2.82227 6.7041 2.38932 6.93652 1.98828C7.16895 1.58724 7.48796 1.26595 7.89355 1.02441C8.29915 0.782878 8.73893 0.662109 9.21289 0.662109C9.68685 0.662109 10.1243 0.782878 10.5254 1.02441C10.9264 1.26595 11.2454 1.58724 11.4824 1.98828C11.7194 2.38932 11.8379 2.82227 11.8379 3.28711C11.8379 3.72461 11.7467 4.13021 11.5645 4.50391C11.3822 4.8776 11.1361 5.1875 10.8262 5.43359C10.5163 5.67969 10.1699 5.83919 9.78711 5.91211ZM2.5 7.96289V6.21289H1.91211C1.64779 6.22201 1.40397 6.16276 1.18066 6.03516C0.957357 5.90755 0.781901 5.72982 0.654297 5.50195C0.526693 5.27409 0.462891 5.02344 0.462891 4.75V0.962891H1.625V4.75C1.625 4.84115 1.65234 4.91634 1.70703 4.97559C1.76172 5.03483 1.83008 5.05534 1.91211 5.03711H2.5V0.962891H3.66211V5.03711H4.25C4.33203 5.05534 4.40039 5.03483 4.45508 4.97559C4.50977 4.91634 4.53711 4.84115 4.53711 4.75V0.962891H5.71289V4.75C5.71289 5.02344 5.64681 5.27409 5.51465 5.50195C5.38249 5.72982 5.20475 5.90755 4.98145 6.03516C4.75814 6.16276 4.51432 6.22201 4.25 6.21289H3.66211V7.96289H4.25V12.625H1.91211V7.96289H2.5Z" fill="#05939F"/>
</svg>
