<svg width="22" height="18" viewBox="0 0 22 18" fill="none" xmlns="http://www.w3.org/2000/svg">
<path d="M17.9542 8.63965C18.7447 5.79493 18.9019 3.30445 18.4666 1.59145C21.0429 3.48829 22.3166 6.77137 21.6043 9.96817L17.9542 8.63965ZM13.9162 0.00576998C10.7984 -0.11159 7.81328 1.56829 6.33692 4.41133L9.84104 5.68669C11.0462 3.03865 12.5012 1.05121 13.9162 0.00576998ZM19.1 15.3H11.3934L14.3054 7.31149L16.9723 8.28217C17.91 4.84753 17.795 2.17933 17.1044 0.95869C16.6704 0.59689 16.7107 0.53509 15.7005 0.26677C14.3724 0.56785 12.4178 2.58181 10.8232 6.04417L12.9652 6.82381L9.87524 15.3H2.9C1.40888 15.3 0.199997 16.5089 0.199997 18H21.8C21.8 16.5089 20.5911 15.3 19.1 15.3Z" fill="#3D3D3D"/>
</svg>
