<svg width="20" height="20" viewBox="0 0 20 20" fill="none" xmlns="http://www.w3.org/2000/svg">
<rect width="20" height="20" rx="10" fill="#3D3D3D"/>
<path fill-rule="evenodd" clip-rule="evenodd" d="M13.4 12.6997L14.2133 11.913L16.5333 9.59301C16.5823 9.53934 16.6194 9.47602 16.6424 9.40713C16.6653 9.33824 16.6736 9.2653 16.6667 9.19301L15.8 4.45968C15.7836 4.39178 15.7487 4.32972 15.6994 4.28032C15.65 4.23093 15.5879 4.1961 15.52 4.17968L10.8133 3.33968C10.7404 3.33089 10.6665 3.33763 10.5964 3.35946C10.5263 3.3813 10.4617 3.41772 10.4067 3.46634L3.4 10.4663C3.37762 10.4886 3.35987 10.5151 3.34776 10.5443C3.33564 10.5735 3.32941 10.6048 3.32941 10.6363C3.32941 10.6679 3.33564 10.6992 3.34776 10.7284C3.35987 10.7576 3.37762 10.784 3.4 10.8063L9.18666 16.5997C9.28 16.6863 9.43333 16.693 9.52 16.5997L12.3467 13.7797C12.6245 14.0552 12.9799 14.2393 13.3652 14.3073C13.7506 14.3752 14.1475 14.3238 14.5028 14.1599C14.8582 13.996 15.1549 13.7275 15.3534 13.3903C15.5519 13.053 15.6426 12.6632 15.6133 12.273V12.2063C15.6133 12.0197 15.5933 11.5263 15.44 11.2063L14.6667 11.933C14.7102 12.0701 14.7245 12.2147 14.7086 12.3577C14.6926 12.5006 14.6469 12.6385 14.5742 12.7626C14.5015 12.8867 14.4036 12.9942 14.2868 13.078C14.17 13.1619 14.0368 13.2202 13.896 13.2494C13.7552 13.2785 13.6098 13.2777 13.4693 13.247C13.3288 13.2163 13.1963 13.1565 13.0804 13.0714C12.9645 12.9862 12.8678 12.8777 12.7965 12.7528C12.7253 12.6279 12.681 12.4894 12.6667 12.3463C12.6467 12.013 12.7933 10.7863 13 9.63301C13.0975 9.07616 13.2221 8.5244 13.3733 7.97968L13.3867 8.00634C13.6141 7.91784 13.8049 7.75491 13.9278 7.54411C14.0508 7.33331 14.0988 7.08707 14.0639 6.84552C14.029 6.60397 13.9134 6.38136 13.7358 6.21396C13.5582 6.04656 13.3291 5.94425 13.0859 5.9237C12.8428 5.90315 12.5998 5.96557 12.3966 6.10079C12.1934 6.23601 12.0421 6.43606 11.9671 6.66833C11.8922 6.9006 11.8982 7.1514 11.9841 7.37985C12.0699 7.6083 12.2306 7.80093 12.44 7.92634C12.3533 8.30634 12.2667 8.76634 12.1667 9.32634C11.9501 10.3984 11.823 11.4866 11.7867 12.5797L11.2333 13.133L6.86 8.76634L10.8867 4.73968C10.9333 4.68634 11.02 4.65968 11.0867 4.67301L14.5533 5.29968C14.6133 5.30634 14.6733 5.36634 14.6867 5.43301L15.34 8.88634C15.3533 8.95301 15.32 9.03968 15.2733 9.08634L13.2067 11.153C13.0733 11.653 12.92 12.5197 13.4067 12.693L13.4 12.6997ZM9.24 14.9663L5.04666 10.753C5.02507 10.7306 5.01301 10.7008 5.01301 10.6697C5.01301 10.6386 5.02507 10.6087 5.04666 10.5863L6.19333 9.43968L10.5667 13.813L9.40666 14.9663C9.38429 14.9879 9.35442 15 9.32333 15C9.29224 15 9.26237 14.9879 9.24 14.9663Z" fill="white"/>
</svg>
