<svg width="14" height="11" viewBox="0 0 14 11" fill="none" xmlns="http://www.w3.org/2000/svg">
<path d="M14 3.33984L12.6875 4.61133C11.9492 3.80924 11.0856 3.18945 10.0967 2.75195C9.10775 2.31445 8.07096 2.0957 6.98633 2.0957C5.90169 2.0957 4.86947 2.31217 3.88965 2.74512C2.90983 3.17806 2.05078 3.79102 1.3125 4.58398L0 3.3125C0.911458 2.33724 1.97103 1.58301 3.17871 1.0498C4.38639 0.516602 5.65788 0.25 6.99316 0.25C8.32845 0.25 9.60221 0.51888 10.8145 1.05664C12.0267 1.5944 13.0885 2.35547 14 3.33984ZM11.5664 5.95117L10.2539 7.22266C9.82552 6.76693 9.32878 6.41602 8.76367 6.16992C8.19857 5.92383 7.60612 5.80078 6.98633 5.80078C6.36654 5.80078 5.77637 5.92155 5.21582 6.16309C4.65527 6.40462 4.16536 6.7487 3.74609 7.19531L2.44727 5.91016C3.03971 5.28125 3.72786 4.7959 4.51172 4.4541C5.29557 4.1123 6.12044 3.94141 6.98633 3.94141C7.85221 3.94141 8.68164 4.11686 9.47461 4.46777C10.2676 4.81869 10.9648 5.31315 11.5664 5.95117ZM7.02734 10.75L4.79883 8.4668C5.04492 8.12044 5.35938 7.84473 5.74219 7.63965C6.125 7.43457 6.54199 7.33203 6.99316 7.33203C7.44434 7.33203 7.86361 7.43913 8.25098 7.65332C8.63835 7.86751 8.95964 8.1569 9.21484 8.52148L7.02734 10.75Z" fill="#05939F"/>
</svg>
