<svg width="25" height="25" viewBox="0 0 25 25" fill="none" xmlns="http://www.w3.org/2000/svg">
<path fill-rule="evenodd" clip-rule="evenodd" d="M0.427002 10.9296C0.427217 9.23674 0.836655 7.56902 1.62043 6.06852C2.40421 4.56803 3.53909 3.27925 4.92839 2.31197C6.31768 1.34469 7.92022 0.727585 9.59946 0.513239C11.2787 0.298893 12.9849 0.493655 14.5726 1.08093C16.1603 1.66821 17.5826 2.63059 18.7181 3.88609C19.8537 5.14159 20.6689 6.65298 21.0944 8.29151C21.5198 9.93004 21.5429 11.6471 21.1616 13.2965C20.7803 14.9458 20.0059 16.4786 18.9044 17.7641L24.427 23.2834L23.2847 24.4258L17.7621 18.9048C16.237 20.2115 14.3692 21.0534 12.3802 21.3309C10.3912 21.6083 8.36428 21.3097 6.5398 20.4703C4.71533 19.6309 3.16977 18.286 2.08634 16.5951C1.00292 14.9041 0.427048 12.9379 0.427002 10.9296ZM14.7326 9.54977L11.5012 6.31831C11.4261 6.24308 11.337 6.18339 11.2389 6.14266C11.1407 6.10194 11.0355 6.08097 10.9292 6.08097C10.823 6.08097 10.7177 6.10194 10.6196 6.14266C10.5214 6.18339 10.4323 6.24308 10.3573 6.31831L7.1258 9.54977C7.05083 9.62493 6.99141 9.71413 6.95093 9.81227C6.91045 9.91042 6.88972 10.0156 6.88991 10.1217V14.1611C6.88991 14.3753 6.97502 14.5808 7.12652 14.7323C7.27803 14.8838 7.48351 14.9689 7.69777 14.9689H14.1607C14.3749 14.9689 14.5804 14.8838 14.7319 14.7323C14.8834 14.5808 14.9685 14.3753 14.9685 14.1611V10.1217C14.9687 10.0156 14.948 9.91042 14.9075 9.81227C14.867 9.71413 14.8076 9.62493 14.7326 9.54977Z" fill="#3D3D3D"/>
</svg>
