<svg width="18" height="19" viewBox="0 0 18 19" fill="none" xmlns="http://www.w3.org/2000/svg">
<path d="M0 0H18V4.385H16V2H2V11H6.333V13H0V0Z" fill="#3D3D3D"/>
<path d="M9.68403 7.287C10.558 8.212 11.303 9 13 9H15C15.5305 9 16.0392 9.21071 16.4142 9.58579C16.7893 9.96086 17 10.4696 17 11V12C17 12.3511 16.9076 12.6959 16.7321 13C16.5565 13.304 16.3041 13.5565 16 13.732V19H13V11C10.383 11 9.04403 9.55 8.16003 8.595C8.04017 8.46335 7.91782 8.33399 7.79303 8.207L9.20703 6.793C9.37303 6.95967 9.53203 7.12433 9.68403 7.287ZM16 6.5C16 6.89782 15.842 7.27936 15.5607 7.56066C15.2794 7.84196 14.8979 8 14.5 8C14.1022 8 13.7207 7.84196 13.4394 7.56066C13.1581 7.27936 13 6.89782 13 6.5C13 6.10218 13.1581 5.72064 13.4394 5.43934C13.7207 5.15804 14.1022 5 14.5 5C14.8979 5 15.2794 5.15804 15.5607 5.43934C15.842 5.72064 16 6.10218 16 6.5Z" fill="#3D3D3D"/>
</svg>
