<svg width="22" height="22" viewBox="0 0 22 22" fill="none" xmlns="http://www.w3.org/2000/svg">
<path d="M20.3697 4.03697C20.048 4.35653 18.4419 6.12689 16.895 7.66349C16.895 20.6134 17.322 19.6413 15.1484 21.8003L13.4255 14.5521L11.6651 12.8034C7.00029 17.4362 7.70325 13.8488 7.70325 18.2837C7.70769 19.2522 7.29849 19.8893 6.71169 20.4722L5.07921 16.807L1.38909 15.1854C2.60037 13.9834 3.26217 14.2006 6.12765 14.2006C7.10289 12.2007 8.30841 11.3434 9.25161 10.4062L7.49481 8.66129L0.200012 6.95249C2.25837 4.90781 0.996571 5.28509 14.4075 5.28509C15.9627 3.74033 17.6334 1.96073 17.9564 1.63985C18.8858 0.716809 21.3185 -0.0829911 21.701 0.296929C22.0835 0.676849 21.2991 3.11381 20.3697 4.03697ZM18.7289 9.13325L17.757 10.0965V12.9261C19.8579 10.8201 20.3925 10.794 18.7289 9.13325ZM12.9539 3.38249C11.3125 1.74425 11.4368 2.08313 9.09561 4.41089H11.9306L12.9539 3.38249Z" fill="#3D3D3D"/>
</svg>
