<svg width="18" height="19" viewBox="0 0 18 19" fill="none" xmlns="http://www.w3.org/2000/svg">
<path d="M10.0681 0.535156L11.2791 2.625C12.1384 2.9375 12.9197 3.39323 13.6228 3.99219H16.0837L17.4119 6.27734L16.1423 8.48438C16.2465 9.1224 16.266 9.76042 16.2009 10.3984L17.4119 12.4883L16.0837 14.793H14.2478C13.766 15.3138 13.2192 15.7565 12.6072 16.1211L13.8962 18.4648H3.58374L4.8728 16.1211C4.26082 15.7565 3.71395 15.3138 3.23218 14.793H1.45483L0.126709 12.4883L1.27905 10.4961C1.20093 9.79297 1.22697 9.09635 1.35718 8.40625L0.126709 6.27734L1.45483 3.99219H3.85718C4.5603 3.39323 5.34155 2.9375 6.20093 2.625L7.41187 0.535156H10.0681ZM4.8728 5.32031L5.41968 6.27734L4.09155 8.58203H3.01733C2.91317 9.11589 2.88062 9.65625 2.91968 10.2031H4.09155L5.41968 12.4883L4.63843 13.8359C4.95093 14.1484 5.29598 14.4219 5.67358 14.6562L7.21655 11.8242C6.7478 11.4987 6.42554 11.0658 6.24976 10.5254C6.07397 9.98503 6.07072 9.44141 6.23999 8.89453C6.40926 8.34766 6.72502 7.90495 7.18726 7.56641C7.6495 7.22786 8.16707 7.05859 8.73999 7.05859C9.31291 7.05859 9.83049 7.22786 10.2927 7.56641C10.755 7.90495 11.0707 8.34766 11.24 8.89453C11.4093 9.44141 11.406 9.98503 11.2302 10.5254C11.0544 11.0658 10.7322 11.4987 10.2634 11.8242L11.8064 14.6562C12.197 14.4089 12.5551 14.1224 12.8806 13.7969L12.1189 12.4883L13.447 10.2031H14.5408C14.5929 9.65625 14.5668 9.11589 14.4626 8.58203H13.447L12.1189 6.27734L12.6462 5.35938C12.0603 4.82552 11.3832 4.42839 10.615 4.16797L10.0681 5.125H7.41187L6.86499 4.16797C6.1228 4.41536 5.45874 4.79948 4.8728 5.32031Z" fill="white"/>
</svg>
