<svg width="19" height="19" viewBox="0 0 19 19" fill="none" xmlns="http://www.w3.org/2000/svg">
<path d="M8.11563 8.17187L1.20157 5.35937L2.72501 3.83594L11.4555 4.83203L14.9516 1.33594C15.199 1.08854 15.4919 0.922523 15.8305 0.837889C16.169 0.753254 16.5076 0.756508 16.8461 0.847654C17.1846 0.938801 17.4809 1.11133 17.7348 1.36523C17.9887 1.61914 18.1612 1.91536 18.2524 2.2539C18.3435 2.59245 18.3468 2.93099 18.2621 3.26953C18.1775 3.60807 18.0115 3.90104 17.7641 4.14844L14.268 7.64453L15.2641 16.375L13.7406 17.8984L10.9281 10.9844L7.97891 13.9531L8.17423 16.5703L6.49454 18.25L5.2836 13.8164L0.850006 12.6055L2.52969 10.9258L5.14688 11.1211L8.11563 8.17187Z" fill="#0F294D"/>
</svg>
