<svg width="15" height="14" viewBox="0 0 15 14" fill="none" xmlns="http://www.w3.org/2000/svg">
<path d="M4.16355 1.94217C5.23715 1.94217 5.99635 2.62858 6.44355 3.20458L7.23315 4.22137C7.26428 4.26152 7.30418 4.29402 7.3498 4.31638C7.39542 4.33873 7.44555 4.35035 7.49635 4.35035C7.54716 4.35035 7.59729 4.33873 7.64291 4.31638C7.68852 4.29402 7.72843 4.26152 7.75955 4.22137L8.54915 3.20458C8.99635 2.62858 9.75475 1.94217 10.8284 1.94217C10.8684 1.94217 10.9084 1.94298 10.95 1.94458C11.5868 1.97258 12.186 2.24297 12.638 2.70618C13.0876 3.16698 13.3356 3.76857 13.3356 4.40137C13.3356 5.57977 12.5572 7.05577 11.0844 8.66857C9.76275 10.115 8.60435 11.2238 7.55475 12.0494C7.52035 12.0758 7.50275 12.0758 7.49635 12.0758C7.48995 12.0758 7.46515 12.0702 7.45475 12.063C6.36835 11.2022 5.20835 10.0926 3.90835 8.66937C2.43555 7.05657 1.65635 5.58057 1.65635 4.40217C1.65635 3.77017 1.90435 3.16777 2.35395 2.70697C2.80595 2.24377 3.40515 1.97337 4.04275 1.94537C4.08355 1.94377 4.12355 1.94297 4.16275 1.94297M10.8284 0.609375C9.20515 0.609375 8.10195 1.60617 7.49555 2.38697C6.88915 1.60617 5.78595 0.609375 4.16275 0.609375C4.10355 0.609375 4.04275 0.610975 3.98195 0.613375C3.00035 0.656575 2.08755 1.06937 1.39875 1.77577C0.701154 2.49018 0.322754 3.42057 0.322754 4.40217C0.322754 5.94377 1.20115 7.68297 2.92355 9.56857C4.29235 11.067 5.50675 12.2206 6.62595 13.1078C6.88435 13.3062 7.19395 13.4094 7.49555 13.4094C7.79715 13.4094 8.10675 13.3062 8.36515 13.1078C9.49315 12.2206 10.6988 11.067 12.0676 9.56857C13.79 7.68297 14.6684 5.94297 14.6684 4.40217C14.6684 3.42057 14.2892 2.49018 13.5916 1.77577C12.9028 1.06937 11.9812 0.656575 11.0084 0.613375C10.9476 0.610975 10.8876 0.609375 10.8276 0.609375H10.8284Z" fill="#3D3D3D"/>
</svg>
